<svg width="24" height="37" viewBox="0 0 24 37" fill="none" xmlns="http://www.w3.org/2000/svg">
<path fill-rule="evenodd" clip-rule="evenodd" d="M11.221 0.551118C10.1231 0.72587 9.19193 1.18246 8.42307 1.92311C7.15819 3.14162 6.60803 4.75444 6.86526 6.48993C7.11696 8.18808 8.29523 9.72095 9.88552 10.4191C10.554 10.7126 11.2228 10.85 11.9819 10.85C13.4135 10.85 14.6576 10.331 15.6683 9.31205C16.9353 8.03482 17.4377 6.21778 17.0131 4.44844C16.5731 2.61466 15.1117 1.13168 13.281 0.661173C12.6446 0.497594 11.8306 0.454091 11.221 0.551118ZM10.59 11.7314C10.4461 11.769 10.313 11.8959 10.2713 12.0349C10.2317 12.1673 10.2547 12.2522 10.6624 13.4796L11.0956 14.7836L10.8507 16.0189C10.716 16.6983 10.5933 17.2852 10.578 17.3231C10.5584 17.3714 10.2858 16.6542 9.66533 14.9222C8.72595 12.3001 8.72183 12.2909 8.46794 12.2401C8.2583 12.1982 6.78776 12.6842 5.7012 13.1545C4.58031 13.6398 4.16399 13.8858 3.68361 14.347C3.0607 14.945 2.69657 15.625 2.53703 16.488C2.45775 16.9171 2.45935 17.8736 2.53989 18.1948C2.69219 18.8019 3.17736 19.2873 3.78416 19.4394C4.00264 19.4942 4.75825 19.4998 11.9819 19.4998C20.7699 19.4998 20.1864 19.5154 20.6089 19.2692C21.0001 19.0411 21.3137 18.6372 21.4115 18.2354C21.4385 18.1244 21.4742 18.0178 21.4909 17.9984C21.5305 17.9524 21.5306 16.6687 21.491 16.6931C21.4744 16.7034 21.4398 16.5869 21.4142 16.4343C21.2833 15.6556 20.8909 14.9333 20.2802 14.347C19.7998 13.8858 19.3835 13.6398 18.2626 13.1545C17.1761 12.6842 15.7055 12.1982 15.4959 12.2401C15.242 12.2909 15.2379 12.3001 14.2985 14.9222C13.678 16.6542 13.4054 17.3714 13.3859 17.3231C13.3705 17.2852 13.2478 16.6983 13.1131 16.0189L12.8682 14.7836L13.3014 13.4796C13.7091 12.2522 13.7321 12.1673 13.6925 12.0349C13.6668 11.9494 13.6034 11.8609 13.5307 11.8089C13.4113 11.7238 13.4068 11.7236 12.0376 11.7177C11.2822 11.7146 10.6308 11.7207 10.59 11.7314ZM2.49502 17.3655C2.49505 17.733 2.50062 17.8783 2.50738 17.6884C2.51413 17.4985 2.5141 17.1979 2.5073 17.0203C2.50051 16.8427 2.49498 16.998 2.49502 17.3655Z" fill="white"/>
<path d="M3.46875 28.6113L6.24023 28.3066C6.14648 27.3145 6.08203 26.0762 6.04688 24.5918H7.06641C7.05078 25.7598 7.09961 26.9629 7.21289 28.2012L11.5078 27.7324L11.6133 28.5996L7.30664 29.0742C7.74805 32.3086 8.59766 34.248 9.85547 34.8926C10.1992 35.0332 10.4219 34.9199 10.5234 34.5527C10.6719 33.998 10.7969 33.3691 10.8984 32.666C11.2266 32.8066 11.5391 32.9199 11.8359 33.0059C11.7188 33.7637 11.5781 34.4355 11.4141 35.0215C11.2031 35.7012 10.7852 36.0332 10.1602 36.0176C9.48828 35.9941 8.84766 35.5918 8.23828 34.8105C7.33203 33.7559 6.70117 31.8789 6.3457 29.1797L3.60938 29.4785L3.46875 28.6113ZM0.0703125 30.1465C1.28906 28.5059 2.25391 26.6309 2.96484 24.5215L3.90234 24.8496C3.55469 25.7598 3.19141 26.6055 2.8125 27.3867V36.0762H1.85156V29.1855C1.40625 29.9316 0.945312 30.6035 0.46875 31.2012C0.359375 30.8809 0.226562 30.5293 0.0703125 30.1465ZM8.14453 25.5176L8.75391 24.8965C9.44141 25.4199 10.1445 26.002 10.8633 26.6426L10.1484 27.3691C9.49219 26.6973 8.82422 26.0801 8.14453 25.5176ZM15.8086 34.8105H19.4766V33.123H16.4883V32.3027H19.4766V30.7559H17.6016V31.1895H16.7344V25.1426H23.0859V31.1895H22.2188V30.7559H20.3438V32.3027H23.332V33.123H20.3438V34.8105H23.8477V35.6309H15.8086V34.8105ZM12.082 34.1191C12.6836 33.9746 13.2656 33.8301 13.8281 33.6855V30.1348H12.3633V29.3145H13.8281V26.3848H12.2461V25.5645H16.2773V26.3848H14.6953V29.3145H16.1836V30.1348H14.6953V33.4512C15.2109 33.3066 15.7109 33.1621 16.1953 33.0176C16.2344 33.3691 16.2773 33.6738 16.3242 33.9316C14.9883 34.291 13.6797 34.6699 12.3984 35.0684L12.082 34.1191ZM20.3438 29.959H22.2188V28.3301H20.3438V29.959ZM17.6016 29.959H19.4766V28.3301H17.6016V29.959ZM22.2188 25.9395H20.3438V27.5566H22.2188V25.9395ZM17.6016 27.5566H19.4766V25.9395H17.6016V27.5566Z" fill="white"/>
</svg>
