<svg width="24" height="37" viewBox="0 0 24 37" fill="none" xmlns="http://www.w3.org/2000/svg">
<path fill-rule="evenodd" clip-rule="evenodd" d="M10.8775 0.538949C8.83651 0.820789 7.03052 1.70438 5.59874 3.12166C4.62995 4.08068 3.82596 5.37165 3.40586 6.6427L3.29477 6.97892L2.98423 7.00703C2.25013 7.07357 1.33287 7.77763 0.94893 8.56932C0.660876 9.1633 0.547852 9.65744 0.515654 10.4641C0.452784 12.0393 0.893842 13.2981 1.81569 14.1742C2.45507 14.7818 3.10371 14.916 4.10109 14.6469C4.72435 14.4788 4.97711 14.2296 4.97695 13.7834C4.9769 13.6408 4.82619 12.5291 4.6421 11.3131C4.31244 9.13585 4.30817 9.09458 4.36438 8.61426C4.70487 5.70427 6.77924 3.16862 9.57514 2.24483C10.4318 1.96182 10.9236 1.88914 11.9966 1.887C13.0635 1.88487 13.5262 1.95328 14.4275 2.24635C16.3373 2.86732 18.0754 4.40511 18.9329 6.23247C19.3069 7.02935 19.5712 7.96376 19.6511 8.77167C19.6919 9.18337 19.2787 12.0232 19.1193 12.4274C18.5703 13.8192 17.4229 15.1895 16.0863 16.0496C15.6933 16.3025 14.9358 16.6565 14.4149 16.8307C13.5592 17.1168 12.873 17.2091 11.6017 17.2091C10.5355 17.2091 10.4991 17.2125 10.2965 17.3312C9.96162 17.5273 9.86019 17.764 9.86019 18.3494C9.86019 18.6735 9.8846 18.8873 9.93196 18.9779C10.0283 19.1621 10.2603 19.376 10.4357 19.4422C10.6633 19.5281 13.3817 19.5144 13.5877 19.4263C13.926 19.2817 14.1329 18.9529 14.1329 18.5602V18.3424L14.4763 18.252C16.1862 17.8017 18.0101 16.5689 19.14 15.0997C19.3335 14.8481 19.5093 14.6219 19.5307 14.597C19.5528 14.5713 19.8056 14.612 20.1179 14.6916C20.545 14.8006 20.7284 14.8243 20.9475 14.7989C21.9317 14.6845 22.8825 13.6673 23.2794 12.3042C23.5437 11.3965 23.562 10.1602 23.3234 9.3199C22.9304 7.9354 22.1426 7.15067 21.0145 7.01984L20.7043 6.98385L20.543 6.52224C19.494 3.5205 16.8796 1.27285 13.6978 0.637148C13.0723 0.512213 11.4744 0.456557 10.8775 0.538949ZM11.0566 3.33554C10.2641 3.45966 9.52753 3.71817 8.82298 4.11936C8.30944 4.41182 7.99025 4.65981 7.53363 5.12122C6.25186 6.41641 5.67743 7.94404 5.75434 9.85318C5.80917 11.2151 6.2661 12.4574 7.07889 13.4545C7.19583 13.5979 7.31979 13.7534 7.35448 13.8001C7.40596 13.8694 7.37997 14.0547 7.21241 14.8139C7.09959 15.3248 7.02121 15.7926 7.03815 15.8533C7.1297 16.1815 7.34146 16.3373 7.60576 16.271C7.6818 16.2519 8.12464 16.0239 8.58981 15.7641L9.43566 15.292L9.94076 15.4605C10.7437 15.7286 11.2778 15.8012 12.2255 15.7716C12.8855 15.7509 13.1379 15.7204 13.5614 15.6103C16.3992 14.8725 18.2527 12.4719 18.2527 9.53409C18.2527 6.54155 16.2684 4.06914 13.3356 3.40726C12.9175 3.31292 11.4881 3.26794 11.0566 3.33554ZM8.42312 8.43758C7.93186 8.61273 7.64691 9.02931 7.65184 9.56494C7.65988 10.4321 8.55365 10.9639 9.34258 10.571C9.73882 10.3737 9.92932 10.0727 9.95353 9.6057C9.97581 9.17666 9.87972 8.94382 9.56227 8.65721C9.25061 8.37587 8.82583 8.29394 8.42312 8.43758ZM11.5896 8.43183C11.3428 8.51001 10.9653 8.90158 10.8888 9.15877C10.7589 9.59589 10.8401 9.99499 11.1225 10.308C11.3641 10.5757 11.6424 10.7009 11.9966 10.7009C12.6469 10.7009 13.1651 10.1866 13.1662 9.53998C13.1675 8.74437 12.3708 8.18441 11.5896 8.43183ZM14.7781 8.4356C14.1383 8.67383 13.833 9.44859 14.134 10.07C14.314 10.4416 14.7405 10.7031 15.1665 10.7031C16.1309 10.7031 16.6716 9.68093 16.1395 8.86341C15.8831 8.4696 15.2344 8.26573 14.7781 8.4356Z" fill="white"/>
<path d="M4.00781 26.7363L4.86328 27.0996C4.68359 27.3223 4.50391 27.5371 4.32422 27.7441H9.72656V28.4824C9.07812 29.2363 8.21875 29.8867 7.14844 30.4336C8.44531 30.8359 10.0273 31.041 11.8945 31.0488C11.6836 31.3535 11.4883 31.6699 11.3086 31.998C9.21875 31.8379 7.48438 31.4727 6.10547 30.9023C4.58984 31.5117 2.73438 31.9551 0.539062 32.2324C0.40625 31.9434 0.242187 31.6621 0.046875 31.3887C2.01953 31.1895 3.69531 30.8613 5.07422 30.4043C4.32422 29.9746 3.7168 29.4629 3.25195 28.8691C2.66602 29.4316 2.05859 29.9355 1.42969 30.3809C1.25781 30.1777 1.05469 29.9668 0.820312 29.748C2.20312 28.8027 3.26562 27.7988 4.00781 26.7363ZM2.20312 32.3027H9.84375V36.0293H8.97656V35.5371H3.07031V36.0293H2.20312V32.3027ZM0.796875 25.916H5.85352C5.64258 25.5918 5.38672 25.248 5.08594 24.8848L5.88281 24.3809C6.19531 24.7402 6.51953 25.1387 6.85547 25.5762L6.31641 25.916H11.2734V28.1074H10.4062V26.6895H1.66406V28.0957H0.796875V25.916ZM8.97656 33.0527H3.07031V34.7871H8.97656V33.0527ZM8.48438 28.4941H4.00195C4.5293 29.1191 5.22266 29.6289 6.08203 30.0234C7.07812 29.5977 7.87891 29.0879 8.48438 28.4941ZM17.2852 25.2363H23.0742C23.0352 25.8691 23.0039 26.3691 22.9805 26.7363C22.918 27.9473 22.3008 28.541 21.1289 28.5176C20.8086 28.5098 20.3047 28.4941 19.6172 28.4707C19.5703 28.166 19.5195 27.8574 19.4648 27.5449C20.043 27.6152 20.5625 27.6582 21.0234 27.6738C21.6953 27.6973 22.0586 27.377 22.1133 26.7129C22.1367 26.5098 22.1562 26.2871 22.1719 26.0449H18.1758V29.4199H23.1211V30.1113C22.8086 31.4824 22.2363 32.6758 21.4043 33.6914C22.0801 34.332 22.918 34.8301 23.918 35.1855C23.6523 35.498 23.4258 35.7793 23.2383 36.0293C22.2773 35.5801 21.4629 35.0215 20.7949 34.3535C20.1973 34.9434 19.4961 35.4629 18.6914 35.9121C18.543 35.6543 18.3828 35.3965 18.2109 35.1387C18.9922 34.7402 19.666 34.2637 20.2324 33.709C19.4707 32.7324 18.9688 31.5566 18.7266 30.1816H18.1758V36.0059H17.2852V25.2363ZM13.0078 25.1895H16.3125V34.6934C16.3125 35.4746 15.9492 35.8652 15.2227 35.8652C14.8242 35.8652 14.4531 35.8535 14.1094 35.8301C14.0781 35.5957 14.0312 35.3184 13.9688 34.998C14.3672 35.0605 14.7109 35.0918 15 35.0918C15.3203 35.0918 15.4805 34.9316 15.4805 34.6113V31.916H13.8398C13.8633 33.7129 13.5391 35.084 12.8672 36.0293C12.6953 35.8027 12.4805 35.584 12.2227 35.373C12.7461 34.5684 13.0078 33.4277 13.0078 31.9512V25.1895ZM22.1953 30.1816H19.5293C19.7715 31.3066 20.2031 32.2637 20.8242 33.0527C21.4688 32.2363 21.9258 31.2793 22.1953 30.1816ZM13.8398 31.1895H15.4805V28.9277H13.8398V31.1895ZM15.4805 25.9512H13.8398V28.2012H15.4805V25.9512Z" fill="white"/>
</svg>
