<svg width="28" height="37" viewBox="0 0 28 37" fill="none" xmlns="http://www.w3.org/2000/svg">
<path fill-rule="evenodd" clip-rule="evenodd" d="M6.30947 0.561497C6.14856 0.633813 6.00261 0.789687 5.94053 0.955518C5.90855 1.04093 5.89385 2.55692 5.89385 5.77476V10.4694L5.70394 10.6955C3.88348 12.8624 4.15862 16.0425 6.3187 17.8011C8.21236 19.3427 10.8451 19.2643 12.695 17.6111C13.2075 17.1531 13.801 16.2444 14.0074 15.6017L14.0821 15.3694H18.1599C22.5927 15.3694 22.4688 15.3758 22.9655 15.1212C23.2739 14.9631 23.6612 14.5787 23.8246 14.2687C24.1071 13.7326 24.0936 14.0484 24.0936 7.9342C24.0936 1.81995 24.1071 2.13581 23.8246 1.59972C23.6612 1.28966 23.2739 0.905286 22.9655 0.7472C22.4532 0.484623 22.9515 0.498829 14.3393 0.500732C7.85466 0.502148 6.41723 0.513036 6.30947 0.561497ZM7.29384 5.70041V9.48629L7.38681 9.43597C7.78125 9.22243 8.56148 9.04133 9.21882 9.01075C11.6611 8.89714 13.8326 10.703 14.2294 13.1776C14.2646 13.3973 14.2935 13.6616 14.2936 13.7651L14.2938 13.9532H18.2137C22.5763 13.9532 22.3127 13.9715 22.5539 13.6517L22.6718 13.4955L22.6843 11.954L22.6969 10.4126H21.719C20.5817 10.4126 20.3474 10.379 19.8695 10.1469C19.157 9.8011 18.6425 9.09077 18.5278 8.29454C18.3741 7.22741 18.9185 6.18308 19.8691 5.72161C20.3473 5.48948 20.5816 5.4558 21.7174 5.4558H22.6937V3.97177C22.6937 2.31589 22.6887 2.2827 22.4064 2.06491L22.2411 1.93736L14.7675 1.92594L7.29384 1.91448V5.70041ZM20.5937 6.92987C20.379 6.99834 20.0127 7.38196 19.9469 7.6074C19.8257 8.02236 19.9112 8.35318 20.2203 8.66594C20.5262 8.97539 20.6231 8.99637 21.7472 8.99637H22.6937V7.9342V6.87203L21.7202 6.87654C21.1455 6.8792 20.6841 6.90106 20.5937 6.92987ZM8.73757 10.4761C7.78742 10.68 6.97849 11.2352 6.45743 12.0409C6.07218 12.6367 5.91765 13.1842 5.91765 13.9532C5.91765 14.9665 6.24599 15.768 6.94774 16.4679C8.32453 17.841 10.5167 17.8242 11.8791 16.4301C13.221 15.057 13.221 12.8493 11.8791 11.4763C11.4147 11.001 10.9012 10.703 10.2257 10.5165C9.88534 10.4225 9.08822 10.4009 8.73757 10.4761ZM9.10944 11.5348C8.94739 11.6107 8.8021 11.7668 8.7405 11.9313C8.71482 11.9998 8.69382 12.322 8.69382 12.6473V13.2387L8.0406 13.2529C7.32971 13.2684 7.26422 13.2897 7.05593 13.5719C6.92945 13.7433 6.92945 14.1631 7.05593 14.3344C7.26409 14.6164 7.33002 14.6379 8.03749 14.6534L8.68761 14.6676L8.70165 15.3252C8.71408 15.9073 8.72607 15.9969 8.80591 16.1049C8.97749 16.337 9.11723 16.4094 9.39381 16.4094C9.6704 16.4094 9.81013 16.337 9.98172 16.1049C10.0616 15.9969 10.0736 15.9073 10.086 15.3252L10.1 14.6676L10.7501 14.6534C11.4576 14.6379 11.5235 14.6164 11.7317 14.3344C11.8582 14.1631 11.8582 13.7433 11.7317 13.5719C11.5235 13.2899 11.4576 13.2684 10.7501 13.253L10.1 13.2388L10.086 12.5811C10.0708 11.8684 10.0488 11.7982 9.77719 11.593C9.63221 11.4835 9.28378 11.4531 9.10944 11.5348Z" fill="white"/>
<circle cx="9.25" cy="14.1562" r="4.84375" fill="url(#paint0_linear_5796_67309)" stroke="white"/>
<path d="M7.46875 14.1562H11.3281" stroke="white" stroke-linecap="round"/>
<path d="M9.39844 12.2266L9.39844 16.0859" stroke="white" stroke-linecap="round"/>
<path d="M2.31641 25.7988H5.60938C5.76953 25.3613 5.91797 24.9121 6.05469 24.4512L7.01562 24.6973C6.89453 25.0723 6.76758 25.4395 6.63477 25.7988H13.7656V26.666H6.29492C5.88477 27.6582 5.42969 28.5762 4.92969 29.4199V35.9941H4.02734V30.7793C3.60938 31.3496 3.16406 31.877 2.69141 32.3613C2.53516 32.0879 2.34766 31.8066 2.12891 31.5176C3.43359 30.1465 4.48047 28.5293 5.26953 26.666H2.31641V25.7988ZM5.44531 31.1426H9.48828V30.3691C10.3164 29.8379 11.043 29.3105 11.668 28.7871H6.23047V27.9316H13.0039V28.8809C12.207 29.5137 11.3359 30.1504 10.3906 30.791V31.1426H13.8477V31.998H10.3906V34.6348C10.3906 35.5254 9.94531 35.9707 9.05469 35.9707C8.63281 35.9707 8.06641 35.959 7.35547 35.9355C7.31641 35.6387 7.26562 35.3223 7.20312 34.9863C7.95312 35.0645 8.50781 35.1035 8.86719 35.1035C9.28125 35.1035 9.48828 34.8965 9.48828 34.4824V31.998H5.44531V31.1426ZM22.0391 27.709H22.9062C22.8984 28.3027 22.8887 28.8438 22.877 29.332C23.252 32.1445 24.2422 34.1348 25.8477 35.3027C25.5508 35.5605 25.3086 35.7988 25.1211 36.0176C23.8984 35.0605 23.0469 33.5645 22.5664 31.5293C22.1719 33.3105 21.2344 34.834 19.7539 36.0996C19.582 35.8965 19.3555 35.6816 19.0742 35.4551C20.7695 34.0957 21.7227 32.416 21.9336 30.416C22.0117 29.6816 22.0469 28.7793 22.0391 27.709ZM14.6328 27.5918H16.8242V26.4316H14.2344V25.6816H16.8242V24.498H17.6914V25.6816H20.2695V26.4316H17.6914V27.5918H19.6836V28.3418H14.6328V27.5918ZM19.7422 29.0215C20.3828 27.5996 20.8242 26.0879 21.0664 24.4863L21.9336 24.6387C21.8242 25.2285 21.7012 25.7988 21.5645 26.3496H25.4961V27.1582C25.2852 27.8301 25.0352 28.5605 24.7461 29.3496C24.5273 29.2168 24.2539 29.1035 23.9258 29.0098C24.1836 28.3926 24.4062 27.7793 24.5938 27.1699H21.3418C21.1074 27.9629 20.8398 28.7129 20.5391 29.4199C20.2578 29.2637 19.9922 29.1309 19.7422 29.0215ZM14.2695 31.1191H20.2227V31.8691H17.7148V34.4473C17.7148 35.3379 17.2734 35.7832 16.3906 35.7832C15.9766 35.7832 15.6172 35.7793 15.3125 35.7715C15.2656 35.459 15.207 35.1582 15.1367 34.8691C15.457 34.916 15.7969 34.9395 16.1562 34.9395C16.6172 34.9395 16.8477 34.7012 16.8477 34.2246V31.8691H14.2695V31.1191ZM14.8672 29.3496H19.5781V30.0996H14.8672V29.3496ZM14.1523 34.4238C14.5742 33.8223 14.9844 33.0957 15.3828 32.2441L16.1328 32.6191C15.6953 33.4316 15.2539 34.1699 14.8086 34.834C14.6289 34.6934 14.4102 34.5566 14.1523 34.4238ZM18.2422 32.6426L18.9219 32.2793C19.2969 32.8105 19.6328 33.3574 19.9297 33.9199L19.1914 34.3301C18.8867 33.7051 18.5703 33.1426 18.2422 32.6426Z" fill="white"/>
<defs>
<linearGradient id="paint0_linear_5796_67309" x1="7.17188" y1="8.8125" x2="11.625" y2="19.5" gradientUnits="userSpaceOnUse">
<stop stop-color="#99BDF5"/>
<stop offset="1" stop-color="#6797DF"/>
</linearGradient>
</defs>
</svg>
