<svg width="24" height="37" viewBox="0 0 24 37" fill="none" xmlns="http://www.w3.org/2000/svg">
<path fill-rule="evenodd" clip-rule="evenodd" d="M11.2113 0.57447C10.0341 0.815784 8.96779 1.41043 8.15272 2.2802C7.39788 3.08563 6.94211 4.03985 6.73364 5.25129C6.59191 6.07496 6.38547 6.4488 5.96065 6.65115C5.73979 6.75634 5.51168 6.76458 5.20345 6.67848C5.0314 6.63046 4.97194 6.62675 4.93027 6.66151C4.90098 6.68591 4.73392 6.99353 4.55902 7.34504C3.89533 8.67912 3.60917 9.97795 3.66127 11.4199C3.73992 13.5977 4.57256 15.5153 6.10512 17.0483C7.41959 18.3632 8.95252 19.1434 10.7861 19.4306C11.3755 19.5229 12.6336 19.5232 13.2265 19.4312C15.05 19.1481 16.607 18.356 17.9071 17.05C19.2071 15.7442 19.9947 14.1824 20.2778 12.3484C20.3585 11.8261 20.3682 10.4513 20.2945 9.98988C20.12 8.89704 19.7979 7.92602 19.3271 7.07364C19.1228 6.70367 18.8157 6.21993 18.7851 6.21993C18.7734 6.21993 18.6359 6.2779 18.4797 6.34877C18.1292 6.50774 17.8623 6.56765 17.6016 6.54592C17.2324 6.51517 17.0811 6.30561 16.9775 5.68136C16.8686 5.02558 16.6818 4.54997 16.35 4.08424C16.0577 3.67396 15.6063 3.30083 15.2036 3.13666C15.0203 3.06193 14.9926 3.05911 14.9356 3.10925C14.9006 3.14001 14.6737 3.34258 14.4314 3.55934C13.914 4.02232 13.7699 4.10314 13.4644 4.10199C13.0644 4.10051 12.7433 3.87074 12.5199 3.42622C12.1912 2.77215 11.8647 1.77799 11.7084 0.954994C11.6609 0.704729 11.6044 0.501411 11.583 0.50312C11.5616 0.504866 11.3943 0.536957 11.2113 0.57447ZM14.8165 1.05714V1.61427H15.3711H15.9258V1.05714V0.5H15.3711H14.8165V1.05714ZM17.0351 2.17141V2.72854H17.5897H18.1444V2.17141V1.61427H17.5897H17.0351V2.17141ZM4.75892 3.28568V3.84281H5.31356H5.86821V3.28568V2.72854H5.31356H4.75892V3.28568ZM9.39945 7.67528C9.07946 7.71739 8.69624 7.91882 8.46125 8.16838C7.74487 8.92924 7.88771 10.1499 8.75928 10.7157C9.40078 11.1322 10.2772 11.0361 10.8213 10.4895C11.1127 10.1968 11.2709 9.83945 11.2947 9.42011C11.3312 8.77703 11.0756 8.2642 10.5475 7.92075C10.2052 7.69815 9.83193 7.61834 9.39945 7.67528ZM11.5996 11.2898L8.14255 14.7625L8.53997 15.1618L8.93743 15.561L12.4035 12.0793L15.8696 8.59767L15.4824 8.20738C15.2694 7.99269 15.0865 7.81705 15.0759 7.81705C15.0653 7.81705 13.501 9.37978 11.5996 11.2898ZM9.49818 8.7722C9.45078 8.78126 9.34857 8.85243 9.271 8.93035C9.08582 9.11636 9.04969 9.30438 9.15374 9.54068C9.25872 9.77906 9.41213 9.86794 9.6879 9.85015C9.87641 9.83796 9.91864 9.81995 10.0367 9.70139C10.1547 9.58283 10.1726 9.54042 10.1848 9.35106C10.2021 9.08011 10.1137 8.92118 9.88861 8.81855C9.73409 8.74806 9.66631 8.74004 9.49818 8.7722ZM13.9569 12.4258C13.7117 12.4839 13.3679 12.6845 13.178 12.8804C12.6464 13.4285 12.5563 14.3046 12.9661 14.9414C13.5437 15.839 14.8249 15.9629 15.5513 15.1913C16.3946 14.2957 16.0164 12.8206 14.8501 12.4559C14.611 12.3812 14.2035 12.3674 13.9569 12.4258ZM14.1304 13.5355C14.0886 13.5525 14.0013 13.6272 13.9363 13.7015C13.6122 14.0723 13.9626 14.6777 14.4531 14.5945C14.6566 14.5599 14.8735 14.3421 14.9079 14.1377C14.9418 13.9356 14.829 13.6776 14.6619 13.5752C14.534 13.497 14.273 13.4774 14.1304 13.5355Z" fill="white"/>
<path d="M3.42188 27.7324H5.9707C6.00977 26.8418 6.02734 25.8027 6.02344 24.6152H6.96094C6.96875 25.7832 6.95312 26.8223 6.91406 27.7324H11.6016V28.5879H8.39062V34.0723C8.39062 34.5098 8.61719 34.7285 9.07031 34.7285H9.83203C10.3477 34.7285 10.6328 34.4629 10.6875 33.9316C10.75 33.4863 10.8008 32.8848 10.8398 32.127C11.1523 32.252 11.4727 32.377 11.8008 32.502C11.7383 33.1738 11.6641 33.7715 11.5781 34.2949C11.4844 34.7949 11.3125 35.1426 11.0625 35.3379C10.8281 35.5332 10.4375 35.627 9.89062 35.6191H8.92969C8.38281 35.6191 8 35.5098 7.78125 35.291C7.55469 35.0879 7.44141 34.709 7.44141 34.1543V28.5879H6.86719C6.78906 31.541 5.71875 34.0137 3.65625 36.0059C3.4375 35.748 3.20312 35.4941 2.95312 35.2441C4.85938 33.4629 5.84961 31.2441 5.92383 28.5879H3.42188V27.7324ZM0.164062 30.123C1.375 28.4902 2.29297 26.6426 2.91797 24.5801L3.86719 24.8965C3.48047 25.9824 3.05859 26.9824 2.60156 27.8965V36.0176H1.71094V29.502C1.33984 30.1035 0.949219 30.6582 0.539062 31.166C0.421875 30.8301 0.296875 30.4824 0.164062 30.123ZM8.625 24.7793C9.46094 25.3105 10.1562 25.8066 10.7109 26.2676C10.4922 26.5098 10.2891 26.7598 10.1016 27.0176C9.46094 26.4473 8.79688 25.916 8.10938 25.4238L8.625 24.7793ZM20.8828 31.166L21.5039 30.6855C22.3242 31.3652 23.043 31.998 23.6602 32.584L22.957 33.1465C22.668 32.834 22.3691 32.5293 22.0605 32.2324C20.0215 32.2676 16.8477 32.3457 12.5391 32.4668L12.4688 31.6113C14.2109 31.6113 15.918 31.6035 17.5898 31.5879V30.6387H14.2266V30.9199H13.4062V27.041H17.5898V26.2324H12.4688V25.4824H17.5898V24.498H18.4102V25.4824H23.5312V26.2324H18.4102V27.041H22.5938V30.6387H18.4102V31.582C19.3906 31.5703 20.3594 31.5566 21.3164 31.541C21.1719 31.416 21.0273 31.291 20.8828 31.166ZM15.0352 32.8887H15.9258V34.1895C15.9258 34.666 16.1953 34.9043 16.7344 34.9043H19.1953C19.7344 34.9043 20.043 34.7285 20.1211 34.377C20.1914 34.0723 20.2422 33.6934 20.2734 33.2402C20.3672 33.2793 20.6562 33.3965 21.1406 33.5918C21.0859 34.0137 21.0195 34.3848 20.9414 34.7051C20.793 35.3848 20.2656 35.7246 19.3594 35.7246H16.5117C15.5273 35.7246 15.0352 35.2402 15.0352 34.2715V32.8887ZM21.7734 29.959V29.1621H18.4102V29.959H21.7734ZM21.7734 27.7207H18.4102V28.5176H21.7734V27.7207ZM14.2266 28.5176H17.5898V27.7207H14.2266V28.5176ZM14.2266 29.959H17.5898V29.1621H14.2266V29.959ZM13.3711 32.8652L14.1914 33.1934C13.8164 34.1074 13.4297 34.8887 13.0312 35.5371C12.7734 35.3887 12.5117 35.2441 12.2461 35.1035C12.6836 34.4473 13.0586 33.7012 13.3711 32.8652ZM21.5625 33.4863L22.2188 33.0059C22.6406 33.4668 23.1602 34.0762 23.7773 34.834L23.0391 35.373C22.6641 34.8418 22.1719 34.2129 21.5625 33.4863ZM17.0859 32.8652L17.7188 32.3965C18.2969 32.9199 18.7578 33.3887 19.1016 33.8027L18.3984 34.3652C18.0078 33.873 17.5703 33.373 17.0859 32.8652Z" fill="white"/>
</svg>
