<svg width="40" height="40" viewBox="0 0 40 40" fill="none" xmlns="http://www.w3.org/2000/svg">
<circle cx="20" cy="20" r="19.5" fill="url(#paint0_linear_16334_8813)" stroke="white"/>
<path fill-rule="evenodd" clip-rule="evenodd" d="M31.25 17.5C31.25 23.7132 26.2132 28.75 20 28.75C13.7868 28.75 8.75 23.7132 8.75 17.5C8.75 11.2868 13.7868 6.25 20 6.25C26.2132 6.25 31.25 11.2868 31.25 17.5ZM14.5833 16.7631C14.2067 16.669 13.8592 17.0071 13.991 17.3723C14.996 20.1568 17.3078 22.1051 19.9991 22.1051C22.6906 22.1051 25.0025 20.1566 26.0074 17.3718C26.1392 17.0067 25.7917 16.6685 25.415 16.7627C23.7689 17.1742 21.9335 17.404 19.9983 17.404C18.0638 17.404 16.229 17.1744 14.5833 16.7631ZM16.5625 14.375C17.4254 14.375 18.125 13.6754 18.125 12.8125C18.125 11.9496 17.4254 11.25 16.5625 11.25C15.6996 11.25 15 11.9496 15 12.8125C15 13.6754 15.6996 14.375 16.5625 14.375ZM25 12.8125C25 13.6754 24.3004 14.375 23.4375 14.375C22.5746 14.375 21.875 13.6754 21.875 12.8125C21.875 11.9496 22.5746 11.25 23.4375 11.25C24.3004 11.25 25 11.9496 25 12.8125ZM18.5604 31.3376C18.938 31.5193 18.938 32.0571 18.5604 32.2388L15.7022 33.6139C15.3702 33.7736 14.9854 33.5317 14.9854 33.1633V30.4131C14.9854 30.0447 15.3702 29.8028 15.7022 29.9625L18.5604 31.3376ZM21.4369 31.3376C21.0593 31.5193 21.0593 32.0571 21.4369 32.2388L24.2951 33.6139C24.627 33.7736 25.0118 33.5317 25.0118 33.1633V30.4131C25.0118 30.0447 24.627 29.8028 24.2951 29.9625L21.4369 31.3376Z" fill="white"/>
<defs>
<linearGradient id="paint0_linear_16334_8813" x1="20" y1="10.959" x2="20" y2="38.6121" gradientUnits="userSpaceOnUse">
<stop stop-color="#70B3FF"/>
<stop offset="1" stop-color="#1D68FF"/>
</linearGradient>
</defs>
</svg>
