<svg width="102" height="40" viewBox="0 0 102 40" fill="none" xmlns="http://www.w3.org/2000/svg">
<path fill-rule="evenodd" clip-rule="evenodd" d="M11.2178 5.73503C10.5617 5.32465 9.71044 5.79627 9.71044 6.57007V11.1382C9.71044 11.6822 10.1514 12.1232 10.6954 12.1232H31.252C31.796 12.1232 32.237 11.6822 32.237 11.1382V6.57007C32.237 5.79627 31.3857 5.32465 30.7296 5.73503L27.1906 7.9489C26.8393 8.16868 26.388 8.14504 26.0615 7.88978L21.5804 4.38581C21.224 4.10707 20.7234 4.10707 20.367 4.38581L15.8859 7.88978C15.5594 8.14504 15.1081 8.16868 14.7568 7.9489L11.2178 5.73503ZM12.3022 32.2348C12.9567 32.5563 13.7215 32.08 13.7215 31.3508V15.0977C13.7215 14.5537 13.2805 14.1127 12.7365 14.1127H10.6154C10.0436 14.1127 9.58008 14.5681 9.58008 15.1299V30.2688C9.58008 30.6541 9.80163 31.0064 10.1524 31.1787L12.3022 32.2348ZM21.4369 23.0771C21.1387 22.7029 21.1526 22.1685 21.4698 21.8103L27.9928 14.4446C28.1797 14.2335 28.4482 14.1127 28.7302 14.1127H31.3223C31.8942 14.1127 32.3577 14.5681 32.3577 15.1299V30.2688C32.3577 30.6541 32.1361 31.0064 31.7853 31.1787L29.6982 32.204C29.2831 32.408 28.7819 32.2955 28.4936 31.9338L21.4369 23.0771ZM18.0247 26.0908C18.412 25.6003 19.1522 25.5899 19.5532 26.0692L25.3401 32.9868C25.75 33.4767 25.5923 34.2212 25.0189 34.5028L21.4319 36.265C21.1404 36.4082 20.7973 36.4082 20.5059 36.265L17.2634 34.6721C16.9263 34.5065 16.7127 34.1636 16.7127 33.7881V28.0942C16.7127 27.8726 16.7874 27.6576 16.9247 27.4837L18.0247 26.0908ZM16.7127 20.7565C16.7127 21.6752 17.8593 22.0937 18.4511 21.3909L23.2165 15.7321C23.756 15.0915 23.3006 14.1127 22.4631 14.1127H17.6977C17.1537 14.1127 16.7127 14.5537 16.7127 15.0977V20.7565Z" fill="white"/>
<path fill-rule="evenodd" clip-rule="evenodd" d="M69.3377 9.17969L69.1856 9.88334H72.5733V9.17969H74.8133V9.88334H77.8692V11.5252H74.8133V11.9391H77.8692V13.581H74.8133V14.0087H77.8692V15.6367H74.8133V16.0782H77.8692V17.7201H73.0711V18.1892H78.1595V20.1484H77.2331L77.8 21.7764H75.3941L74.8272 20.1484H73.0711V21.7764H70.8172V20.1484H69.0473L68.4942 21.7764H66.1021L66.6552 20.1484H65.4246V18.1892H70.8172V17.7201H66.5446V13.1532H65.7149V10.8629H66.669L67.0285 9.17969H69.3377ZM68.6325 16.0782H72.5733V15.6367H68.6325V16.0782ZM68.6325 14.0087H72.5733V13.581H68.6325V14.0087ZM68.7431 11.9391H72.5733V11.5252H68.8399L68.7431 11.9391ZM91.7521 9.37294V21.8179H79.3766V9.37294H91.7521ZM81.6305 19.7207H89.4982V11.4563H81.6305V19.7207ZM88.2676 12.0772V12.8222H88.9866V14.6158H88.2676V19.0999H85.6404V17.2925H86.3041V14.6158H85.5298L84.7416 19.1137H82.792L83.5801 14.6158H82.5984V12.8222H86.3041V12.0772H88.2676ZM57.9033 9.95213V9.30367H55.6494V9.95213H52.0267V11.7457H55.6494V12.8633H51.6119V14.6569H54.9926L53.4094 15.2847L51.6119 15.8021V17.5819L53.285 17.0645V21.7624H63.849V15.6089H57.3502L59.5591 14.6569H64.333V12.8633H61.9359L63.1162 12.036L64.1878 11.2422L63.1162 9.86245L61.1864 11.2843L60.9315 11.4496V9.95213H57.9033ZM60.475 11.7457H57.9033V12.8633H58.7521L60.475 11.7457ZM61.609 20.0378H55.5388V19.4859H61.609V20.0378ZM61.609 17.8854H55.5388V17.3612H61.609V17.8854ZM45.2648 9.20763V9.71812H49.814V15.7198H38.4755V9.71812H43.0247V9.20763H45.2648ZM50.4085 16.1889V17.7342H45.2648V18.2309H50.2703V19.7762H45.2648V20.2729H50.5053V21.8044H37.7842V20.2729H43.0247V19.7762H38.0192V18.2309H43.0247V17.7342H37.881V16.1889H50.4085ZM40.7294 14.0228H47.5601V13.5399H40.7294V14.0228ZM40.7294 11.8843H47.5601V11.4014H40.7294V11.8843ZM91.8023 28.5045V25.2553L91.1938 24.6482H88.0758V30.6914H89.2165V29.1116H91.1938L91.8023 28.5045ZM89.2165 28.0492V25.7106H90.6615V28.0492H89.2165ZM83.1875 24.6479V29.6286H84.6325V24.6479H85.7732V30.0839L85.1648 30.691H82.6551L82.0467 30.0839V24.6479H83.1875ZM79.1491 24.6479H76.6395L76.0311 25.2549V30.0839L76.6395 30.691H79.1491L79.7575 30.0839V25.2549L79.1491 24.6479ZM77.1718 29.6286V25.7102H78.6168V29.6286H77.1718ZM71.2659 30.6839H70.139V24.7305H73.2087L73.8171 25.3376V27.7866L73.6512 27.9521L73.5129 28.0901C73.4668 28.1315 73.4184 28.1775 73.3677 28.2281L73.2087 28.3867H73.0773L73.9 30.6839H72.7455L71.9227 28.3867H71.2659V30.6839ZM72.6902 27.3382V25.786H71.2659V27.3382H72.6902ZM64.047 30.0839L64.6554 30.691H67.1651L67.7735 30.0839V27.5176H65.8169V28.58H66.6327V29.6286H65.1877V25.7102H66.6327V26.745H67.7735V25.2549L67.1651 24.6479H64.6554L64.047 25.2549V30.0839ZM54.8463 30.6914L54.2379 30.0843V25.2553L54.8463 24.6482H57.356L57.9644 25.2553V26.7454H56.8236V25.7106H55.3787V29.629H56.8236V28.5804H56.0078V27.518H57.9644V30.0843L57.356 30.6914H54.8463ZM50.8038 24.6479V28.4282L48.9025 24.6479H47.7617V30.691H48.9025V26.9175L50.8038 30.691H51.9445V24.6479H50.8038ZM45.3759 30.6914H44.2352V24.6482H45.3759V30.6914ZM40.405 24.6479L39.202 26.7381V24.6479H38.0613V30.691H39.202V28.442L40.5502 30.691H41.9398L39.9349 27.6004L41.7808 24.6479H40.405Z" fill="white"/>
</svg>
