<svg width="72" height="24" viewBox="0 0 72 24" fill="none" xmlns="http://www.w3.org/2000/svg">
<path fill-rule="evenodd" clip-rule="evenodd" d="M24 12C24 18.6274 18.6274 24 12 24C5.37258 24 0 18.6274 0 12C0 5.37258 5.37258 0 12 0C18.6274 0 24 5.37258 24 12ZM16 12C16 15.866 12.866 19 9 19C5.13401 19 2 15.866 2 12C2 8.13401 5.13401 5 9 5C12.866 5 16 8.13401 16 12ZM21.3975 8.93029C22.0814 8.46271 21.7047 6.7219 20.5561 5.04208C19.4076 3.36226 17.9221 2.37954 17.2382 2.84712C16.5544 3.3147 16.9311 5.05551 18.0796 6.73533C19.2282 8.41516 20.7137 9.39787 21.3975 8.93029Z" fill="white"/>
<path d="M8.36328 10.8164C7.64193 10.4805 7.28125 9.99349 7.28125 9.35547C7.28125 8.91016 7.45052 8.54818 7.78906 8.26953C8.1276 7.98828 8.5599 7.84766 9.08594 7.84766C9.56771 7.84766 9.96484 7.97917 10.2773 8.24219C10.5898 8.50521 10.7461 8.84505 10.7461 9.26172C10.7461 9.93359 10.3698 10.4505 9.61719 10.8125V10.8281C10.5 11.1458 10.9414 11.6875 10.9414 12.4531C10.9414 12.9557 10.7591 13.3568 10.3945 13.6562C10.0326 13.9531 9.52604 14.1016 8.875 14.1016C8.34115 14.1016 7.90625 13.9544 7.57031 13.6602C7.23438 13.3659 7.06641 12.9844 7.06641 12.5156C7.06641 11.7448 7.4987 11.1836 8.36328 10.832V10.8164ZM9.97266 9.35156C9.97266 9.08073 9.88802 8.86719 9.71875 8.71094C9.54948 8.55469 9.32031 8.47656 9.03125 8.47656C8.76042 8.47656 8.52995 8.55859 8.33984 8.72266C8.14974 8.88411 8.05469 9.09115 8.05469 9.34375C8.05469 9.84896 8.37109 10.2331 9.00391 10.4961C9.64974 10.2279 9.97266 9.84635 9.97266 9.35156ZM8.95703 11.1797C8.20964 11.4818 7.83594 11.9141 7.83594 12.4766C7.83594 12.7682 7.94531 13.0078 8.16406 13.1953C8.38281 13.3828 8.66797 13.4766 9.01953 13.4766C9.36068 13.4766 9.63802 13.3841 9.85156 13.1992C10.0651 13.0117 10.1719 12.7786 10.1719 12.5C10.1719 11.9141 9.76693 11.474 8.95703 11.1797Z" fill="white"/>
<path d="M36.5117 14.2754C37.2031 14.7949 37.918 15.3418 38.6562 15.916L38.0703 16.666C37.4375 16.0801 36.7539 15.4941 36.0195 14.9082V18.5527H35.1523V14.5801C34.4922 15.6465 33.7266 16.5879 32.8555 17.4043C32.707 17.2559 32.4727 17.0488 32.1523 16.7832C33.375 15.7988 34.3164 14.6777 34.9766 13.4199H32.5859V12.5527H35.1523V11.6387H36.0195V12.5527H38.4219V13.4199H36.0195V14.873L36.5117 14.2754ZM37.5312 17.7676C40.0312 16.752 41.8711 15.4277 43.0508 13.7949L43.7656 14.4043C42.4219 16.1387 40.5469 17.5215 38.1406 18.5527C37.9531 18.2793 37.75 18.0176 37.5312 17.7676ZM32.5977 8.70898C32.543 8.44336 32.4727 8.1582 32.3867 7.85352C34.6758 7.74414 36.7383 7.61914 38.5742 7.47852L38.7852 8.32227C37.2695 8.43164 35.207 8.56055 32.5977 8.70898ZM43.4023 11.2754C42.3711 12.4629 41.0039 13.5137 39.3008 14.4277C39.1602 14.2012 38.9805 13.9395 38.7617 13.6426C40.5195 12.7832 41.8203 11.8027 42.6641 10.7012L43.4023 11.2754ZM43.1445 8.05273C42.1445 9.24023 40.7852 10.3066 39.0664 11.252C38.8477 10.9551 38.6523 10.7012 38.4805 10.4902C40.1758 9.68555 41.4688 8.70508 42.3594 7.54883L43.1445 8.05273ZM36.7695 11.334C37.1914 10.6309 37.6289 9.80664 38.082 8.86133L38.8672 9.2832C38.5312 9.90039 38.0742 10.7051 37.4961 11.6973L36.7695 11.334ZM34.7305 9.29492L35.4453 8.91992C35.8203 9.5918 36.168 10.2324 36.4883 10.8418L35.7031 11.252C35.4375 10.6348 35.1133 9.98242 34.7305 9.29492ZM32.5742 9.72852L33.2773 9.3418C33.6445 9.95117 34 10.5645 34.3438 11.1816L33.582 11.6152C33.3008 11.0293 32.9648 10.4004 32.5742 9.72852ZM45.1836 9.37695H48.1133V8.28711H44.5625V7.56055H55.4844V8.28711H51.9102V9.37695H54.8516V12.6348H54.0312V12.2598H46.0039V12.6348H45.1836V9.37695ZM44.3516 14.7441H55.7188V15.4707H50.5859V17.0176C50.5859 17.9395 50.1289 18.4043 49.2148 18.4121C48.8008 18.4121 48.2891 18.4082 47.6797 18.4004C47.6484 18.1426 47.5977 17.834 47.5273 17.4746C48.1211 17.5293 48.5977 17.5566 48.957 17.5566C49.4492 17.5566 49.6953 17.3145 49.6953 16.8301V15.4707H44.3516V14.7441ZM45.1953 13.1387H54.875V13.8652H45.1953V13.1387ZM51.6875 16.5137L52.1797 15.7871C53.2812 16.3184 54.4375 16.9004 55.6484 17.5332L55.0977 18.4004C53.8711 17.6816 52.7344 17.0527 51.6875 16.5137ZM47.4453 15.7285L48.0898 16.4434C46.957 17.1387 45.8164 17.7949 44.668 18.4121C44.5352 18.1777 44.3672 17.9043 44.1641 17.5918C45.4219 17.0059 46.5156 16.3848 47.4453 15.7285ZM54.0312 10.0801H51.9102V11.5566H54.0312V10.0801ZM48.957 11.5566H51.0664V10.0801H48.957V11.5566ZM46.0039 11.5566H48.1133V10.0801H46.0039V11.5566ZM48.957 9.37695H51.0664V8.28711H48.957V9.37695Z" fill="white"/>
<path d="M63.3496 15.0886C63.6686 15.5353 64.3325 15.5353 64.6515 15.0886L67.3827 11.265C67.7609 10.7355 67.3824 10 66.7317 10H61.2694C60.6187 10 60.2402 10.7355 60.6184 11.265L63.3496 15.0886Z" fill="white"/>
</svg>
