<svg width="72" height="24" viewBox="0 0 72 24" fill="none" xmlns="http://www.w3.org/2000/svg">
<path fill-rule="evenodd" clip-rule="evenodd" d="M11.6875 0.0920506C11.5468 0.161692 11.463 0.246445 11.3943 0.388404C11.3044 0.574005 11.298 0.672508 11.298 1.87158C11.298 3.07252 11.3043 3.16891 11.3947 3.35564C11.4968 3.56654 11.7781 3.74871 12.0018 3.74871C12.2255 3.74871 12.5068 3.56654 12.6089 3.35564C12.6993 3.16891 12.7056 3.07252 12.7056 1.87158C12.7056 0.670631 12.6993 0.57424 12.6089 0.387512C12.5387 0.242503 12.4575 0.161317 12.3126 0.091112C12.0611 -0.0306203 11.9349 -0.0304326 11.6875 0.0920506ZM8.87247 1.03062C8.73177 1.10026 8.64793 1.18501 8.57924 1.32697C8.49099 1.50924 8.48302 1.61305 8.48302 2.5755C8.48302 3.53951 8.4909 3.64153 8.57966 3.82492C8.68176 4.03582 8.96307 4.218 9.18677 4.218C9.41047 4.218 9.69179 4.03582 9.79388 3.82492C9.88265 3.64153 9.89053 3.53951 9.89053 2.5755C9.89053 1.6115 9.88265 1.50948 9.79388 1.32608C9.72369 1.18107 9.64252 1.09989 9.49755 1.02968C9.24612 0.907948 9.11987 0.908136 8.87247 1.03062ZM14.5025 1.03062C14.3618 1.10026 14.278 1.18501 14.2093 1.32697C14.121 1.50924 14.1131 1.61305 14.1131 2.5755C14.1131 3.53951 14.1209 3.64153 14.2097 3.82492C14.3118 4.03582 14.5931 4.218 14.8168 4.218C15.0405 4.218 15.3218 4.03582 15.4239 3.82492C15.5127 3.64153 15.5206 3.53951 15.5206 2.5755C15.5206 1.6115 15.5127 1.50948 15.4239 1.32608C15.3537 1.18107 15.2726 1.09989 15.1276 1.02968C14.8762 0.907948 14.7499 0.908136 14.5025 1.03062ZM11.1411 5.46305C9.40339 5.79174 7.98842 6.97284 7.39989 8.58576C7.16047 9.24192 7.106 9.56901 7.10736 10.3422C7.10844 10.9519 7.12528 11.1089 7.233 11.5154C7.61796 12.9679 8.59857 14.1443 9.95279 14.7781C11.7757 15.6314 14.0055 15.2414 15.4424 13.8181C16.0879 13.1787 16.537 12.3975 16.7723 11.5049C16.8757 11.1126 16.8936 10.944 16.8955 10.3422C16.8971 9.85171 16.8746 9.53729 16.8213 9.30537C16.3897 7.42673 15.0435 6.01897 13.2272 5.54696C12.6493 5.39679 11.6943 5.3584 11.1411 5.46305ZM12.0253 7.59079C11.9478 7.63884 11.8387 7.72852 11.7828 7.79005C11.647 7.93933 11.1618 8.75086 10.438 10.0394C9.75996 11.2466 9.72139 11.3807 9.98797 11.605L10.1323 11.7265H11.1335H12.1347L12.1503 12.2887C12.1651 12.8188 12.1729 12.8578 12.2858 12.9707C12.5499 13.2345 12.9794 13.1274 13.0777 12.7731C13.105 12.675 13.1274 12.3994 13.1275 12.1606L13.1278 11.7265H13.2649C13.344 11.7265 13.4632 11.6751 13.5464 11.605C13.6631 11.5069 13.6908 11.4477 13.6908 11.2969C13.6908 11.1943 13.6691 11.0697 13.6425 11.02C13.5858 10.9139 13.36 10.788 13.2266 10.788C13.1355 10.788 13.1326 10.7505 13.1187 9.41532C13.1045 8.06078 13.1028 8.04027 12.992 7.86185C12.9301 7.76241 12.814 7.64105 12.7339 7.5922C12.5448 7.4768 12.2098 7.47614 12.0253 7.59079ZM11.7783 9.60303C11.5741 9.95795 11.3387 10.3697 11.2552 10.5181L11.1035 10.788H11.6465H12.1895V9.87287C12.1895 9.36956 12.1805 8.95777 12.1695 8.95777C12.1586 8.95777 11.9825 9.24816 11.7783 9.60303ZM4.40123 14.194C4.33672 14.2055 4.15726 14.2368 4.00243 14.2637C2.74984 14.481 1.52052 15.3027 0.804706 16.401C-0.22137 17.9756 -0.269554 19.9689 0.679484 21.5818C1.36837 22.7527 2.45375 23.5497 3.82274 23.8902C4.41183 24.0366 5.4228 24.0366 6.01189 23.8902C7.17839 23.6001 8.12809 22.9882 8.81331 22.0854C11.0075 19.1943 9.47517 15.0509 5.92603 14.2784C5.60109 14.2076 4.62779 14.1538 4.40123 14.194ZM18.5702 14.194C18.5057 14.2055 18.3262 14.2368 18.1714 14.2637C16.9188 14.481 15.6895 15.3027 14.9737 16.401C13.9476 17.9756 13.8994 19.9689 14.8484 21.5818C15.5373 22.7527 16.6227 23.5497 17.9917 23.8902C18.5808 24.0366 19.5918 24.0366 20.1808 23.8902C21.3473 23.6001 22.297 22.9882 22.9823 22.0854C25.1765 19.1943 23.6441 15.0509 20.095 14.2784C19.77 14.2076 18.7967 14.1538 18.5702 14.194ZM4.98769 16.3655C4.78792 16.4883 4.21384 17.1059 3.98207 17.4473C3.71038 17.8475 3.39566 18.5215 3.24594 19.0239C3.14179 19.3733 3.11927 19.5435 3.11551 20.0094C3.11124 20.5417 3.11856 20.5879 3.24852 20.8531C3.43159 21.2266 3.76546 21.5519 4.15534 21.7367C4.44195 21.8725 4.51341 21.8865 4.91732 21.8865C5.32123 21.8865 5.39268 21.8725 5.6793 21.7367C6.06918 21.5519 6.40304 21.2266 6.58611 20.8531C6.71171 20.5969 6.72362 20.5297 6.72362 20.0788C6.72362 19.6169 6.71382 19.5652 6.57157 19.2761C6.23911 18.6007 5.41107 18.1284 4.74795 18.236L4.57562 18.264L4.77877 17.9647C4.89053 17.8002 5.12502 17.5224 5.29983 17.3475C5.47464 17.1727 5.63956 16.9887 5.6663 16.9387C5.81873 16.6539 5.57402 16.2782 5.23635 16.2788C5.177 16.2789 5.06511 16.3179 4.98769 16.3655ZM18.5936 16.3613C18.2505 16.4739 17.8073 16.9248 17.7066 17.2639C17.5716 17.7188 17.6307 18.2 17.8615 18.5242L17.9522 18.6517L17.7664 18.8365C17.6642 18.9381 17.5129 19.1587 17.4302 19.3266C17.2931 19.6054 17.28 19.6709 17.28 20.0788C17.28 20.4834 17.294 20.5553 17.4289 20.8401C17.6184 21.2402 17.9262 21.548 18.3262 21.7376C18.6107 21.8724 18.6829 21.8865 19.0863 21.8865C19.4897 21.8865 19.5618 21.8724 19.8464 21.7376C20.2463 21.548 20.5542 21.2402 20.7437 20.8401C20.8785 20.5553 20.8926 20.4834 20.8926 20.0788C20.8926 19.6709 20.8795 19.6054 20.7423 19.3266C20.6596 19.1587 20.5084 18.9381 20.4061 18.8365L20.2203 18.6517L20.3157 18.5176C20.5371 18.2067 20.5971 17.7058 20.4659 17.2639C20.362 16.9139 19.9217 16.4731 19.5618 16.3587C19.2502 16.2595 18.901 16.2605 18.5936 16.3613ZM18.8406 17.2906C18.6948 17.3697 18.5702 17.5804 18.5702 17.7476C18.5702 17.8095 18.6181 17.9314 18.6766 18.0182C18.8779 18.317 19.2947 18.317 19.496 18.0182C19.6202 17.8338 19.63 17.6884 19.5312 17.4972C19.4014 17.246 19.0927 17.1538 18.8406 17.2906ZM4.48324 19.2853C4.0958 19.4899 3.91343 20.0518 4.11001 20.4353C4.47231 21.1421 5.39324 21.1401 5.72007 20.4318C5.99214 19.8421 5.56867 19.1851 4.91985 19.1902C4.75409 19.1915 4.59523 19.2261 4.48324 19.2853ZM18.7813 19.2586C18.5405 19.3438 18.3088 19.5961 18.2413 19.8467C18.0319 20.6248 18.8994 21.2625 19.5608 20.8167C20.033 20.4984 20.0996 19.8622 19.7023 19.4648C19.5392 19.3016 19.2708 19.1865 19.0628 19.1905C19.0112 19.1915 18.8845 19.2221 18.7813 19.2586Z" fill="white"/>
<path d="M37.5312 7.4668L38.2344 6.98633C38.6172 7.41602 39.0117 7.91992 39.418 8.49805L38.7207 8.9668H40.4258C40.8516 8.28711 41.2422 7.62695 41.5977 6.98633L42.4648 7.49023C42.1445 7.95898 41.7988 8.45117 41.4277 8.9668H43.2617V14.5449H42.4414V14.1348H40.4492V15.5762H43.8477V16.3613H40.4492V18.5645H39.6055V16.3613H36.1484V15.5762H39.6055V14.1348H37.6133V14.5449H36.793V8.9668H38.5801C38.2754 8.4668 37.9258 7.9668 37.5312 7.4668ZM32.293 7.67773H35.6914V11.6387H34.8711V11.2402H33.5586L33.3711 13.2559H35.668C35.6523 14.373 35.6211 15.4707 35.5742 16.5488C35.5195 17.7285 34.9922 18.3184 33.9922 18.3184C33.7188 18.3184 33.2305 18.3105 32.5273 18.2949C32.4805 17.998 32.4141 17.6895 32.3281 17.3691C33.0469 17.4238 33.5508 17.4512 33.8398 17.4512C34.3945 17.4512 34.6836 17.1309 34.707 16.4902C34.7539 15.623 34.7852 14.8105 34.8008 14.0527H32.4688L32.8086 10.4434H34.8711V8.47461H32.293V7.67773ZM40.4492 13.3496H42.4414V11.9316H40.4492V13.3496ZM37.6133 9.75195V11.1699H39.6055V9.75195H37.6133ZM42.4414 9.75195H40.4492V11.1699H42.4414V9.75195ZM37.6133 13.3496H39.6055V11.9316H37.6133V13.3496ZM48.3828 12.1777H51.3477V10.0215H49.666C49.4902 10.5879 49.3047 11.1113 49.1094 11.5918C48.8594 11.4824 48.5742 11.3809 48.2539 11.2871C48.7383 10.2246 49.1211 9.02148 49.4023 7.67773L50.2461 7.85352C50.1367 8.32617 50.0234 8.77539 49.9062 9.20117H51.3477V7.0332H52.2148V9.20117H54.9805V10.0215H52.2148V12.1777H55.3789V12.998H52.584C53.3809 14.6074 54.5039 15.8965 55.9531 16.8652C55.6719 17.084 55.4102 17.3301 55.168 17.6035C53.8984 16.4941 52.9141 15.1426 52.2148 13.5488V18.4824H51.3477V13.6133C50.5859 15.2148 49.4766 16.5918 48.0195 17.7441C47.8086 17.4863 47.5742 17.248 47.3164 17.0293C48.8672 15.9629 50.082 14.6191 50.9609 12.998H48.3828V12.1777ZM44.1523 16.0918C44.6992 15.9199 45.2344 15.7461 45.7578 15.5703V12.4004H44.3867V11.5801H45.7578V9.07227H44.2227V8.25195H48.0781V9.07227H46.6016V11.5801H47.9375V12.4004H46.6016V15.2773C47.1133 15.0977 47.6133 14.916 48.1016 14.7324C48.1172 15.084 48.1367 15.3887 48.1602 15.6465C46.9805 16.0527 45.75 16.5059 44.4688 17.0059L44.1523 16.0918Z" fill="white"/>
<path d="M63.3496 15.0886C63.6686 15.5353 64.3325 15.5353 64.6515 15.0886L67.3827 11.265C67.7609 10.7355 67.3824 10 66.7317 10H61.2694C60.6187 10 60.2402 10.7355 60.6184 11.265L63.3496 15.0886Z" fill="white"/>
</svg>
