<svg width="21" height="22" viewBox="0 0 21 22" fill="none" xmlns="http://www.w3.org/2000/svg">
<path d="M14.9346 6.87342C17.8123 8.57154 19.7604 11.718 19.7604 14.675C19.7604 19.0024 15.5831 21.5 10.4271 21.5C5.27109 21.5 1.09375 19.0024 1.09375 14.675C1.09375 11.7195 3.04234 8.57202 5.92043 6.87344H14.9346L14.9346 6.87342ZM12.0777 9.88744L10.3166 11.8331L8.55557 9.88744C8.35545 9.66636 7.96855 9.66636 7.76843 9.88744C7.56831 10.1085 7.56831 10.536 7.76843 10.7571L9.0492 12.1721H7.67505C7.38154 12.1721 7.18142 12.3932 7.18142 12.7175C7.18142 13.0417 7.38154 13.2628 7.67505 13.2628H9.83633V14.4567H7.67505C7.38154 14.4567 7.18142 14.6778 7.18142 15.0021C7.18142 15.3264 7.47492 15.6506 7.76843 15.6506H9.92972V17.3899C9.92972 17.7142 10.1298 17.9353 10.4233 17.9353C10.7169 17.9353 10.917 17.7142 10.917 17.3899V15.4443H13.0783C13.3718 15.4443 13.5719 15.2232 13.5719 14.8989C13.5719 14.5746 13.3718 14.3535 13.0783 14.3535H10.9036V13.1596H13.0649V13.1449C13.3584 13.1449 13.5586 12.9238 13.5586 12.5995C13.5586 12.2753 13.3584 12.0542 13.0649 12.0542H11.6908L12.8648 10.7571C13.0649 10.536 13.0649 10.1085 12.8648 9.88744C12.6647 9.66636 12.2778 9.66636 12.0777 9.88744ZM16.3597 0.806503C16.9479 1.52284 16.318 3.17707 14.4702 5.76917L6.19276 5.76938C5.5282 4.90552 3.45656 2.05702 4.14615 0.963336C4.69106 0.0991072 6.75208 0.645003 10.3292 2.60107C13.7425 0.665378 15.7526 0.0672114 16.3597 0.806503Z" fill="#1D6BF5"/>
</svg>
