<svg width="105" height="40" viewBox="0 0 105 40" fill="none" xmlns="http://www.w3.org/2000/svg">
<circle cx="20.5898" cy="20" r="19.5" fill="#DCDFE4" stroke="white"/>
<path fill-rule="evenodd" clip-rule="evenodd" d="M30.5898 17.1445C30.5898 22.6674 26.1127 27.1445 20.5898 27.1445C15.067 27.1445 10.5898 22.6674 10.5898 17.1445C10.5898 11.6217 15.067 7.14453 20.5898 7.14453C26.1127 7.14453 30.5898 11.6217 30.5898 17.1445ZM16.254 20.5521C15.8514 20.4428 15.482 20.8218 15.6743 21.192C16.6587 23.0871 18.4958 24.3616 20.5996 24.3616C22.7042 24.3616 24.5418 23.0861 25.526 21.1899C25.7182 20.8196 25.3486 20.4408 24.946 20.5502C23.6322 20.9074 22.1563 21.1078 20.5965 21.1078C19.0395 21.1078 17.5661 20.9081 16.254 20.5521ZM14.8739 30C14.0849 30 13.4453 30.6396 13.4453 31.4286C13.4453 32.2176 14.0849 32.8571 14.8739 32.8571H26.3025C27.0914 32.8571 27.731 32.2176 27.731 31.4286C27.731 30.6396 27.0914 30 26.3025 30H14.8739Z" fill="white"/>
<circle cx="21" cy="20" r="19.5" fill="#DCDFE4" stroke="white"/>
<path fill-rule="evenodd" clip-rule="evenodd" d="M31 17.1455C31 22.6684 26.5228 27.1455 21 27.1455C15.4772 27.1455 11 22.6684 11 17.1455C11 11.6227 15.4772 7.14551 21 7.14551C26.5228 7.14551 31 11.6227 31 17.1455ZM16.6571 20.5554C16.2545 20.446 15.885 20.825 16.0773 21.1952C17.0618 23.0903 18.8988 24.3648 21.0026 24.3648C23.1064 24.3648 24.9436 23.0902 25.928 21.195C26.1203 20.8248 25.7508 20.4458 25.3482 20.5552C24.0352 20.9118 22.5606 21.1118 21.0023 21.1118C19.4442 21.1118 17.9699 20.9119 16.6571 20.5554ZM15.2847 30.0026C14.4957 30.0026 13.8561 30.6422 13.8561 31.4312C13.8561 32.2202 14.4957 32.8598 15.2847 32.8598H26.7132C27.5022 32.8598 28.1418 32.2202 28.1418 31.4312C28.1418 30.6422 27.5022 30.0026 26.7132 30.0026H15.2847Z" fill="white"/>
<path d="M49.984 5.808C50.4533 6.16 50.8907 6.512 51.296 6.864C51.7013 7.20533 52.0853 7.552 52.448 7.904L51.472 8.88C50.8747 8.19733 50.0427 7.48267 48.976 6.736L49.984 5.808ZM49.632 9.136C50.5387 9.84 51.3227 10.544 51.984 11.248L50.992 12.24C50.7147 11.8987 50.384 11.552 50 11.2C49.616 10.8373 49.1733 10.4587 48.672 10.064L49.632 9.136ZM52.352 13.616C51.744 15.376 51.0347 17.056 50.224 18.656L48.896 18.064C49.728 16.4853 50.48 14.8427 51.152 13.136L52.352 13.616ZM56.464 7.936C56.2187 7.27467 55.9307 6.608 55.6 5.936L56.848 5.616C57.0613 6.032 57.2427 6.43733 57.392 6.832C57.552 7.22667 57.696 7.59467 57.824 7.936H57.744H61.28V9.264H57.744V12.304H60.88V13.6H57.744V16.96H61.584V18.272H52.48V16.96H56.416V13.6H53.248V12.304H56.416V9.264H52.832V7.936H56.464ZM64.3795 11.216V6.128H68.6995V11.216H70.0115V6.128H74.3155V11.216H75.7715V12.496H74.3155V17.248C74.3155 18.1547 73.8248 18.608 72.8435 18.608H71.6115L71.2435 17.344C71.4568 17.3547 71.6595 17.3653 71.8515 17.376C72.0542 17.3867 72.2515 17.392 72.4435 17.392C72.8168 17.392 73.0035 17.184 73.0035 16.768V12.496H71.3075V12.912C71.2648 15.312 70.8222 17.2693 69.9795 18.784L68.9875 17.888C69.3288 17.2373 69.5795 16.5067 69.7395 15.696C69.8995 14.8853 69.9902 13.9787 70.0115 12.976V12.496H68.6995V17.232C68.6995 18.1493 68.2675 18.608 67.4035 18.608H66.1235L65.7875 17.344C65.9795 17.3547 66.1822 17.3653 66.3955 17.376C66.6088 17.3867 66.8115 17.392 67.0035 17.392C67.2702 17.392 67.4035 17.184 67.4035 16.768V12.496H65.6915V12.864C65.6808 15.3173 65.1848 17.2907 64.2035 18.784L63.2115 17.872C63.9688 16.592 64.3582 14.96 64.3795 12.976V12.496H62.7795V11.216H64.3795ZM73.0035 7.36H71.3075V11.216H73.0035V7.36ZM67.4035 7.36H65.6915V11.216H67.4035V7.36ZM87.559 11.6V15.232H79.431V11.6H87.559ZM86.215 12.8H80.791V14.048H86.215V12.8ZM80.951 15.376C81.175 15.6213 81.3883 15.888 81.591 16.176C81.8043 16.464 82.0123 16.768 82.215 17.088H84.935C85.1163 16.8107 85.2977 16.528 85.479 16.24C85.6603 15.9413 85.8257 15.6373 85.975 15.328L87.239 15.76C86.9723 16.24 86.6843 16.6827 86.375 17.088H89.575V18.368H77.335V17.088H80.775C80.615 16.8533 80.4443 16.64 80.263 16.448C80.0817 16.2453 79.8843 16.048 79.671 15.856L80.951 15.376ZM78.711 7.552C79.3723 8.04267 79.9697 8.53333 80.503 9.024C81.015 8.512 81.447 7.952 81.799 7.344H78.487V6.112H83.335V7.12C83.1643 7.54667 82.9617 7.95733 82.727 8.352C82.4923 8.736 82.2203 9.09867 81.911 9.44H85.671C84.7643 8.49067 84.0603 7.44 83.559 6.288L84.663 5.68C84.7803 5.95733 84.9083 6.22933 85.047 6.496C85.1963 6.76267 85.3563 7.01867 85.527 7.264C85.7937 7.05067 86.039 6.832 86.263 6.608C86.487 6.37333 86.695 6.13333 86.887 5.888L87.863 6.736C87.4043 7.26933 86.871 7.75467 86.263 8.192C86.391 8.34133 86.5243 8.49067 86.663 8.64C86.8017 8.77867 86.9563 8.928 87.127 9.088C87.4363 8.84267 87.719 8.58667 87.975 8.32C88.2417 8.04267 88.4817 7.76533 88.695 7.488L89.655 8.336C89.4203 8.61333 89.1697 8.88 88.903 9.136C88.647 9.392 88.3697 9.63733 88.071 9.872C88.7003 10.352 89.415 10.7893 90.215 11.184L89.335 12.24C88.183 11.5787 87.1857 10.864 86.343 10.096V10.656H81.143V10.208C80.247 10.9867 79.111 11.6693 77.735 12.256L76.935 11.184C77.9483 10.7787 78.8177 10.3253 79.543 9.824C79.2977 9.6 79.031 9.376 78.743 9.152C78.4657 8.91733 78.1457 8.67733 77.783 8.432L78.711 7.552ZM101.347 6.112V10.704H103.779V11.936H98.2265V13.376C98.3865 13.5573 98.5412 13.7227 98.6905 13.872C98.8505 14.0213 99.0158 14.1707 99.1865 14.32C100.147 13.7867 100.963 13.0187 101.635 12.016L102.675 12.864C102.301 13.3333 101.901 13.7547 101.475 14.128C101.048 14.4907 100.595 14.8 100.115 15.056C100.659 15.472 101.235 15.8507 101.843 16.192C102.461 16.5333 103.128 16.8587 103.843 17.168L103.155 18.352C102.131 17.8613 101.208 17.3333 100.387 16.768C99.5758 16.192 98.8558 15.5573 98.2265 14.864V17.344C98.2265 18.304 97.8105 18.784 96.9785 18.784H95.3305L95.0425 17.504C95.3198 17.5253 95.5812 17.5467 95.8265 17.568C96.0718 17.5787 96.3065 17.584 96.5305 17.584C96.7758 17.584 96.8985 17.3973 96.8985 17.024V14.944C96.1945 15.5733 95.4212 16.1653 94.5785 16.72C93.7465 17.2747 92.8452 17.808 91.8745 18.32L91.3465 17.072C93.5118 16.08 95.3625 14.9067 96.8985 13.552V11.936H91.5225V10.704H99.9705V9.616H93.4425V8.432H99.9705V7.328H92.9625V6.112H101.347ZM93.2345 12.24C94.0772 12.8267 94.7865 13.4027 95.3625 13.968L94.4665 14.848C94.2105 14.5707 93.9065 14.2933 93.5545 14.016C93.2025 13.728 92.8025 13.4293 92.3545 13.12L93.2345 12.24ZM56.52 29.768V33.692H50.16V29.768H56.52ZM55.788 32.072H50.904V33.008H55.788V32.072ZM55.788 31.424V30.452H50.904V31.424H55.788ZM52.968 26.744V25.76H53.712V26.744H57.72V27.44H54.456C55.264 28.224 56.5 28.84 58.164 29.288L57.84 29.972C55.912 29.324 54.56 28.48 53.784 27.44H53.712V29.444H52.968V27.44H52.908C52.084 28.456 50.736 29.304 48.864 29.984L48.444 29.3C49.316 29.06 50.064 28.784 50.688 28.472C51.32 28.16 51.844 27.816 52.26 27.44H48.972V26.744H52.968ZM57.9 34.52V35.228H48.756V34.52H57.9ZM63.3086 27.728C63.3726 27.6 63.4286 27.472 63.4766 27.344C63.5326 27.216 63.5846 27.092 63.6326 26.972C63.1206 27.004 62.5806 27.028 62.0126 27.044C61.4446 27.06 60.8606 27.068 60.2606 27.068L60.0326 26.42C61.5606 26.42 62.9446 26.372 64.1846 26.276C65.4326 26.18 66.5566 26.024 67.5566 25.808L67.8926 26.42C67.3886 26.532 66.8446 26.628 66.2606 26.708C65.6766 26.788 65.0486 26.852 64.3766 26.9C64.3286 27.052 64.2766 27.196 64.2206 27.332C64.1726 27.468 64.1206 27.6 64.0646 27.728H68.0246V28.388H63.7526C63.6886 28.524 63.6206 28.652 63.5486 28.772C63.4846 28.884 63.4166 29 63.3446 29.12H68.6366V29.804H62.8886C62.7846 29.932 62.6846 30.056 62.5886 30.176C62.5006 30.288 62.4086 30.408 62.3126 30.536H67.5806V35.54H66.8486V35.096H62.0366V35.54H61.3046V31.556C61.0246 31.804 60.7366 32.048 60.4406 32.288C60.1446 32.52 59.8326 32.752 59.5046 32.984L59.0846 32.324C59.6686 31.916 60.1966 31.508 60.6686 31.1C61.1486 30.684 61.5806 30.252 61.9646 29.804H59.3606V29.12H62.4926C62.5806 28.992 62.6646 28.872 62.7446 28.76C62.8246 28.648 62.8966 28.524 62.9606 28.388H59.9486V27.728H63.3086ZM62.0366 33.14H66.8486V32.468H62.0366V33.14ZM66.8486 31.16H62.0366V31.88H66.8486V31.16ZM62.0366 34.46H66.8486V33.74H62.0366V34.46ZM79.1693 26.204V26.936H74.9813V27.836H78.2933V32.06H74.8613C74.7253 32.764 74.5133 33.324 74.2253 33.74C75.7453 34.38 77.5133 34.732 79.5293 34.796L79.3253 35.528C78.2533 35.488 77.2533 35.364 76.3253 35.156C75.4053 34.948 74.5453 34.664 73.7453 34.304C73.0013 34.936 71.7853 35.348 70.0973 35.54L69.7613 34.832C71.2573 34.72 72.3373 34.416 73.0013 33.92C72.3853 33.592 71.8133 33.2 71.2853 32.744L71.8733 32.348C72.1373 32.556 72.4053 32.752 72.6773 32.936C72.9493 33.112 73.2333 33.276 73.5293 33.428C73.7933 33.068 73.9773 32.612 74.0813 32.06H70.9493V27.836H74.2253V26.936H70.0493V26.204H79.1693ZM77.5253 30.26H74.9813V30.62L74.9453 31.388H77.5253V30.26ZM74.1893 31.388C74.2133 31.14 74.2253 30.884 74.2253 30.62V30.26H71.7173V31.388H74.1893ZM74.2253 29.624V28.508H71.7173V29.624H74.2253ZM74.9813 29.624H77.5253V28.508H74.9813V29.624ZM85.8739 26.12C85.6819 26.328 85.4819 26.528 85.2739 26.72H88.3219V27.32C87.1779 29.376 85.0459 30.524 81.9259 30.764L81.5899 30.068C82.0859 30.036 82.5459 29.984 82.9699 29.912C83.3939 29.84 83.7979 29.748 84.1819 29.636C84.0139 29.436 83.8419 29.244 83.6659 29.06C83.4899 28.876 83.3099 28.704 83.1259 28.544L83.7979 28.22C83.9899 28.404 84.1739 28.592 84.3499 28.784C84.5339 28.976 84.7139 29.176 84.8899 29.384C85.9859 28.944 86.8419 28.284 87.4579 27.404H84.3379C83.5139 27.884 82.5379 28.256 81.4099 28.52L80.9419 27.812C82.8379 27.46 84.2539 26.776 85.1899 25.76L85.8739 26.12ZM84.8059 32.396C85.0059 32.612 85.1979 32.832 85.3819 33.056C85.5739 33.28 85.7619 33.508 85.9459 33.74C87.1379 33.22 88.0659 32.492 88.7299 31.556H85.5859C85.1219 31.78 84.6139 31.976 84.0619 32.144C83.5099 32.312 82.9059 32.456 82.2499 32.576L81.8059 31.892C84.1259 31.652 85.8339 30.944 86.9299 29.768L87.6139 30.14C87.4859 30.26 87.3539 30.384 87.2179 30.512C87.0899 30.632 86.9459 30.748 86.7859 30.86H89.6899V31.472C88.1939 33.976 85.3819 35.276 81.2539 35.372L80.9299 34.64C82.6099 34.624 84.0459 34.416 85.2379 34.016C85.0539 33.784 84.8699 33.56 84.6859 33.344C84.5019 33.12 84.3059 32.912 84.0979 32.72L84.8059 32.396Z" fill="white"/>
<path d="M48 20.672H104.755V21.776H48V20.672Z" fill="white"/>
</svg>
