<svg width="24" height="33" viewBox="0 0 24 33" fill="none" xmlns="http://www.w3.org/2000/svg">
<path fill-rule="evenodd" clip-rule="evenodd" d="M6.47564 9.27705C5.43781 9.39679 4.40002 9.88251 3.61767 10.6147C2.5758 11.5898 2.00175 12.9412 2 14.4228C1.99949 14.8672 2.08982 15.1212 2.32022 15.3229C2.43261 15.4214 2.5893 15.5099 2.70028 15.5377C2.93899 15.5975 7.62131 15.6049 7.62131 15.5454C7.62131 15.5236 7.60121 15.4532 7.57664 15.3889C7.35168 14.8003 7.5119 13.2536 7.90742 12.1955C8.25085 11.2768 8.77669 10.4251 9.4044 9.77086C9.51006 9.6607 9.58706 9.56114 9.57547 9.54961C9.52317 9.49758 8.71285 9.31256 8.3666 9.27353C7.9187 9.22311 6.92729 9.22494 6.47564 9.27705ZM14.1373 9.27438C12.2757 9.49745 10.6767 10.6126 9.85728 12.2591C9.50435 12.9682 9.28315 13.8591 9.28251 14.5739C9.28217 14.9589 9.43587 15.2564 9.72794 15.4361L9.93568 15.5639L15.5365 15.5752C21.8693 15.5881 21.4494 15.609 21.7533 15.2655C21.9909 14.9969 22.0355 14.7844 21.9766 14.2009C21.8703 13.1483 21.5339 12.2617 20.9351 11.4556C20.1306 10.3727 18.9946 9.64778 17.6399 9.35281C17.2731 9.27294 17.0643 9.26091 15.8408 9.2493C15.0796 9.24205 14.313 9.25337 14.1373 9.27438Z" fill="white"/>
<ellipse cx="15.4479" cy="4.4653" rx="3.96552" ry="4.05172" fill="#3461AD"/>
<circle cx="7.83519" cy="6.24926" r="2.33422" fill="white"/>
<path fill-rule="evenodd" clip-rule="evenodd" d="M15.095 0.418856C14.8143 0.45248 14.7256 0.46563 14.5899 0.493684C13.8077 0.655433 13.1033 1.03674 12.5295 1.60905C11.9014 2.2355 11.508 3.01777 11.3687 3.91746C11.3263 4.19098 11.3263 4.8022 11.3687 5.07573C11.508 5.97579 11.8996 6.75424 12.5299 7.38426C13.5827 8.43668 15.0963 8.83126 16.5349 8.42832C17.5247 8.15107 18.3906 7.487 18.9296 6.5917C19.4435 5.73822 19.6253 4.69232 19.4301 3.71306C19.2666 2.89317 18.8957 2.19789 18.3075 1.60853C17.6837 0.983649 16.8956 0.585613 16.0151 0.450896C15.8445 0.424801 15.2253 0.40322 15.095 0.418856ZM15.8124 2.10322C15.4268 2.19029 15.1957 2.32147 14.8667 2.63973C14.6473 2.85207 14.6018 2.923 14.6012 3.0537C14.6001 3.28968 14.8502 3.4565 15.0685 3.36534C15.1002 3.3521 15.2248 3.2467 15.3455 3.13113C15.6475 2.8417 15.8244 2.75919 16.1429 2.75919C16.4261 2.75919 16.6582 2.85553 16.8593 3.05657C17.0605 3.25764 17.1568 3.48961 17.1568 3.77267C17.1568 4.09106 17.0743 4.26788 16.7848 4.56984C16.5648 4.79921 16.5264 4.85925 16.5264 4.97353C16.5264 5.22363 16.7834 5.38699 17.012 5.28221C17.1005 5.24165 17.4469 4.88437 17.5538 4.72342C17.653 4.57406 17.7213 4.42631 17.7822 4.2289C17.8254 4.08934 17.8284 4.05863 17.828 3.77267C17.8277 3.48903 17.8242 3.45487 17.7818 3.31645C17.5998 2.72172 17.1881 2.30942 16.603 2.13585C16.472 2.09698 16.4112 2.08951 16.1855 2.08448C15.9979 2.08031 15.8898 2.08572 15.8124 2.10322ZM13.8224 3.71427C13.7299 3.76002 13.3886 4.11177 13.2843 4.2688C13.1821 4.42274 13.1153 4.5666 13.056 4.76061C13.0123 4.90355 13.0092 4.93464 13.0092 5.22051C13.0092 5.50604 13.0124 5.53765 13.0559 5.68041C13.2483 6.31221 13.7315 6.75724 14.3677 6.8886C14.5291 6.92194 14.8458 6.9233 15.0125 6.8914C15.2755 6.84108 15.5142 6.73338 15.734 6.56592C15.8958 6.4426 16.1792 6.15113 16.2109 6.07533C16.3047 5.851 16.1395 5.60376 15.8959 5.60376C15.7804 5.60376 15.7164 5.64473 15.4905 5.86292C15.1901 6.15304 15.0171 6.23399 14.6977 6.23399C14.4112 6.23399 14.1801 6.13845 13.9781 5.93661C13.777 5.73555 13.6806 5.50357 13.6806 5.22051C13.6806 4.90212 13.7632 4.7253 14.0527 4.42335C14.2727 4.19398 14.3111 4.13393 14.3111 4.01966C14.3111 3.7669 14.0481 3.60256 13.8224 3.71427ZM15.7509 3.71278C15.655 3.76024 14.6621 4.75708 14.6272 4.84097C14.5095 5.12345 14.7916 5.40542 15.0742 5.28783C15.1599 5.25216 16.1564 4.25956 16.2031 4.16332C16.3417 3.87751 16.0352 3.57211 15.7509 3.71278Z" fill="white"/>
<path d="M3.17578 24.9321C4.16797 23.729 5.05078 22.2798 5.82422 20.5845L6.70312 20.8774C6.40625 21.4985 6.09375 22.0962 5.76562 22.6704H11.625V23.4673H8.71875V25.2837H11.4609V26.0806H8.71875V27.897H11.4609V28.6938H8.71875V30.5454H11.8125V31.3188H5.39062V32.1978H4.5V24.6802C4.28125 24.9888 4.05859 25.2915 3.83203 25.5884C3.69141 25.4165 3.47266 25.1978 3.17578 24.9321ZM0.164062 26.8774C0.6875 26.7563 1.19141 26.6333 1.67578 26.5083V23.6665H0.246094V22.8462H1.67578V20.6196H2.55469V22.8462H3.91406V23.6665H2.55469V26.2798C3.03125 26.1509 3.48438 26.022 3.91406 25.8931C3.92969 26.2524 3.95703 26.5571 3.99609 26.8071C3.49219 26.9478 3.01172 27.0845 2.55469 27.2173V30.7681C2.55469 31.5649 2.24609 31.9829 1.62891 32.022C1.23828 32.0454 0.839844 32.0532 0.433594 32.0454C0.402344 31.7329 0.355469 31.4087 0.292969 31.0728C0.683594 31.104 0.996094 31.1196 1.23047 31.1196C1.52734 31.1196 1.67578 30.9673 1.67578 30.6626V27.4692C1.18359 27.6138 0.71875 27.7524 0.28125 27.8853L0.164062 26.8774ZM5.39062 30.5454H7.82812V28.6938H5.39062V30.5454ZM5.39062 27.897H7.82812V26.0806H5.39062V27.897ZM5.39062 25.2837H7.82812V23.4673H5.39062V25.2837ZM7.53516 21.0767L8.27344 20.6196C8.65625 21.1118 9.00781 21.5962 9.32812 22.0728L8.51953 22.5767C8.23047 22.0923 7.90234 21.5923 7.53516 21.0767ZM13.8281 22.3657H18.498C18.2793 21.9907 17.9883 21.5454 17.625 21.0298L18.4805 20.5376C18.8633 21.0298 19.2031 21.5103 19.5 21.979L18.8438 22.3657H23.6484V23.3149H14.8711V26.2212C14.8789 28.6743 14.2422 30.6274 12.9609 32.0806C12.7812 31.8853 12.5 31.6392 12.1172 31.3423C13.2578 30.1001 13.8281 28.354 13.8281 26.104V22.3657Z" fill="white"/>
</svg>
