<svg width="72" height="24" viewBox="0 0 72 24" fill="none" xmlns="http://www.w3.org/2000/svg">
<path fill-rule="evenodd" clip-rule="evenodd" d="M10.9603 0.0171183C10.2811 0.0880273 9.43073 0.246488 8.79743 0.420069C4.70513 1.5419 1.4667 4.80049 0.380164 8.88971C0.0654526 10.074 0 10.6087 0 11.9947C0 13.3807 0.0654526 13.9155 0.380164 15.0997C1.11832 17.8778 2.87879 20.3353 5.30065 21.9682C7.65465 23.5553 10.5245 24.2498 13.3653 23.9197C18.8941 23.2772 23.2761 18.9087 23.9176 13.3999C24.3552 9.64234 23.0354 5.96668 20.3081 3.34732C18.5074 1.61785 16.3643 0.547178 13.8626 0.127174C13.3266 0.0371605 11.4496 -0.0339831 10.9603 0.0171183ZM8.20378 2.75725C7.49454 3.05033 7.07848 3.2743 6.39569 3.73047C5.73448 4.17227 4.68882 5.12849 4.23312 5.70807L3.95741 6.05868L4.79867 6.66141L5.63988 7.26408L5.56147 7.50505C5.51836 7.63761 5.16359 8.72832 4.7731 9.92897L4.06316 12.1119H3.03075H1.99835L2.03718 12.7419C2.13342 14.3051 2.70367 16.0253 3.57256 17.3734L3.84762 17.8002L4.03166 17.6617C4.13283 17.5856 4.51141 17.3082 4.87292 17.0454L5.5302 16.5674L7.48281 17.9807C8.55674 18.758 9.47853 19.4314 9.53125 19.4771C9.61893 19.5533 9.60005 19.6421 9.30744 20.5302C9.13161 21.0636 8.99907 21.5113 9.01279 21.5251C9.07302 21.5852 10.2309 21.8393 10.7327 21.9024C11.8926 22.0483 13.7022 21.9103 14.753 21.5957C15.0164 21.5168 15.0255 21.5997 14.6201 20.3885L14.3403 19.5524L14.6444 19.3292C14.8116 19.2063 15.7363 18.5332 16.6992 17.8333L18.4501 16.5607L18.752 16.7875C18.918 16.9123 19.2963 17.1892 19.5926 17.403L20.1312 17.7915L20.4035 17.3691C21.2695 16.0256 21.84 14.3031 21.9361 12.7419L21.975 12.1119H20.9423H19.9097L19.1706 9.84107C18.7641 8.59213 18.4099 7.5033 18.3835 7.42149C18.3384 7.28166 18.3855 7.23665 19.1752 6.66504L20.0148 6.05734L19.7397 5.70736C19.0229 4.7958 17.6072 3.64274 16.5543 3.11291C16.0493 2.85881 15.2733 2.54916 15.2015 2.57313C15.1715 2.58309 15.0084 3.0127 14.8389 3.52776L14.5309 4.46429H11.9867H9.44246L9.13431 3.52665C8.96042 2.99758 8.7928 2.58344 8.74957 2.57617C8.70746 2.56914 8.46184 2.6506 8.20378 2.75725ZM8.65198 10.945C8.22291 12.2693 7.88057 13.3593 7.89124 13.3674C8.57345 13.8823 11.9637 16.2982 11.9918 16.2895C12.0338 16.2766 15.9028 13.4815 16.0004 13.3936C16.0647 13.3357 16.0693 13.3513 15.1746 10.6029L14.5021 8.53716H11.9671H9.43207L8.65198 10.945Z" fill="white"/>
<path d="M43.9062 15.541C43.6406 15.8613 43.4102 16.1504 43.2148 16.4082C41.6523 15.2051 40.5039 13.1699 39.7695 10.3027V15.248H41.4922V16.0918H39.7695V18.541H38.9023V16.0918H37.1797V15.248H38.9023V10.3027H38.873C38.1465 13.002 36.9492 15.0996 35.2812 16.5957C35.1016 16.3691 34.8945 16.123 34.6602 15.8574C36.168 14.4785 37.2969 12.627 38.0469 10.3027H35.293V9.45898H38.9023V7.06836H39.7695V9.45898H43.5078V10.3027H40.5254C41.2715 12.7324 42.3984 14.4785 43.9062 15.541ZM32.1055 12.6934C33.2383 11.0371 34.082 9.15039 34.6367 7.0332L35.5273 7.29102C35.2227 8.28711 34.8789 9.22266 34.4961 10.0977V18.5293H33.6289V11.8613C33.2773 12.498 32.9023 13.0957 32.5039 13.6543C32.3867 13.334 32.2539 13.0137 32.1055 12.6934ZM45.8516 12.166H54.1953V17.0059C54.1953 17.9277 53.6484 18.3887 52.5547 18.3887C52.1875 18.3887 51.7383 18.3848 51.207 18.377C51.1914 18.2988 51.1289 17.9785 51.0195 17.416C51.5586 17.4941 52.0508 17.5332 52.4961 17.5332C53.0195 17.5332 53.2891 17.3105 53.3047 16.8652V16.502H46.7422V18.4941H45.8516V12.166ZM52.4727 9.25977C53.4727 9.94727 54.4609 10.6621 55.4375 11.4043L54.7695 12.0723C54.4453 11.791 54.1074 11.5098 53.7559 11.2285C50.6934 11.2402 48.3555 11.2832 46.7422 11.3574C46.25 11.3809 45.8281 11.4238 45.4766 11.4863L45.1484 10.502C45.6875 10.4004 46.1211 10.252 46.4492 10.0566C46.918 9.7793 47.3828 9.45117 47.8438 9.07227H44.3164V8.25195H49.8125C49.6484 7.9668 49.4688 7.66602 49.2734 7.34961L50.082 6.95117C50.4375 7.50586 50.7012 7.93945 50.873 8.25195H55.6953V9.07227H49.2266C48.4531 9.61914 47.7461 10.0957 47.1055 10.502C48.9375 10.502 50.8086 10.4824 52.7188 10.4434C52.4609 10.252 52.1953 10.0605 51.9219 9.86914L52.4727 9.25977ZM46.7422 15.7285H53.3047V14.7324H46.7422V15.7285ZM53.3047 12.9629H46.7422V13.959H53.3047V12.9629Z" fill="white"/>
<path d="M63.3496 15.0886C63.6686 15.5353 64.3325 15.5353 64.6515 15.0886L67.3827 11.265C67.7609 10.7355 67.3824 10 66.7317 10H61.2694C60.6187 10 60.2402 10.7355 60.6184 11.265L63.3496 15.0886Z" fill="white"/>
</svg>
