<svg width="28" height="37" viewBox="0 0 28 37" fill="none" xmlns="http://www.w3.org/2000/svg">
<path d="M20.0029 9.5H8.00293V10V16L8.50293 19H17.5029L20.0029 18.5V9.5Z" fill="url(#paint0_linear_5796_67328)"/>
<path d="M4.69718 6.72376L4.69716 6.72375C4.69104 6.72059 4.68455 6.71737 4.67777 6.714C4.62753 6.68908 4.56158 6.65636 4.51569 6.58123C4.46777 6.50278 4.44489 6.38667 4.43041 6.20344C4.4028 5.85388 4.40286 5.18698 4.40297 3.86792C4.40298 3.78009 4.40299 3.68936 4.40299 3.59564C4.40299 3.4755 4.40297 3.36033 4.40295 3.24991C4.40277 1.98277 4.40268 1.34216 4.42906 1.00401C4.44319 0.822879 4.46568 0.709188 4.51261 0.630689C4.55505 0.559703 4.61607 0.52367 4.66392 0.495407C4.67189 0.490705 4.67948 0.486219 4.68657 0.481822L4.69718 6.72376ZM4.69718 6.72376C4.76935 6.76107 4.87668 6.77574 5.0834 6.78447C5.2967 6.79346 5.63605 6.79597 6.19013 6.79597H7.41929L7.43012 12.3801L7.4411 18.064L7.44114 18.0831M4.69718 6.72376L7.44114 18.0831M7.44114 18.0831L7.44824 18.1009M7.44114 18.0831L7.44824 18.1009M7.44824 18.1009L7.5447 18.3423C7.79295 18.9637 8.2358 19.3687 8.85106 19.5289C8.87074 19.534 8.89814 19.5373 8.9259 19.5399C8.95596 19.5427 8.99407 19.5454 9.03923 19.5479C9.12967 19.5529 9.25128 19.5575 9.39917 19.5618C9.69512 19.5703 10.0987 19.5774 10.5738 19.583C11.5241 19.5943 12.762 19.6 13.9996 19.6C15.2373 19.6 16.4751 19.5943 17.4254 19.583C17.9005 19.5774 18.3041 19.5703 18.6001 19.5618C18.748 19.5575 18.8696 19.5529 18.96 19.5479C19.0052 19.5454 19.0433 19.5427 19.0733 19.5399C19.1011 19.5373 19.1285 19.534 19.1482 19.5289C19.7634 19.3687 20.2063 18.9637 20.4545 18.3423L20.551 18.1009L20.5581 18.0831M7.44824 18.1009L20.5581 18.0831M20.5581 18.0831L20.5581 18.064M20.5581 18.0831L20.5581 18.064M20.5581 18.064L20.5691 12.3801L20.58 6.79597H21.8091C22.3632 6.79597 22.7025 6.79346 22.9158 6.78447C23.1226 6.77574 23.2299 6.76107 23.3021 6.72376L23.3021 6.72375M20.5581 18.064L23.3021 6.72375M23.3021 6.72375C23.3082 6.72059 23.3147 6.71737 23.3215 6.714M23.3021 6.72375L23.3215 6.714M17.079 13.9299L17.1773 13.9481C17.1677 13.9998 17.1435 14.05 17.1014 14.1105C17.0597 14.1706 16.9963 14.2467 16.9016 14.3507C16.7118 14.5591 16.3855 14.8916 15.8277 15.4528C15.4715 15.8113 15.1299 16.1503 14.8664 16.4078C14.7347 16.5365 14.6223 16.645 14.5373 16.7256C14.4549 16.8036 14.3926 16.8607 14.3649 16.8812C14.2484 16.9674 14.1276 17.0172 13.9996 17.0172C13.8717 17.0172 13.7508 16.9674 13.6343 16.8812C13.6066 16.8607 13.5443 16.8036 13.462 16.7256C13.3769 16.645 13.2645 16.5365 13.1328 16.4078C12.8694 16.1503 12.5278 15.8113 12.1715 15.4528C11.6156 14.8935 11.2893 14.561 11.0991 14.3521C11.0042 14.2479 10.9404 14.1716 10.8985 14.1115C10.8564 14.0511 10.8317 14.0008 10.8221 13.949L17.079 13.9299ZM17.079 13.9299L17.1773 13.9481C17.2141 13.7496 17.1347 13.5588 17.0046 13.4288C16.8745 13.2988 16.6838 13.2196 16.4854 13.2567M17.079 13.9299L14.5825 15.0028M14.5825 15.0028L15.3476 14.2422C15.7444 13.8478 15.9862 13.6119 16.145 13.4717C16.3003 13.3347 16.3915 13.2743 16.4854 13.2567M14.5825 15.0028L14.5819 11.6436C14.5817 10.2553 14.5787 9.34921 14.571 8.78078C14.5671 8.49674 14.562 8.2959 14.5555 8.16097C14.5522 8.09367 14.5485 8.04128 14.5441 8.00254C14.542 7.98323 14.5395 7.96585 14.5365 7.95099C14.534 7.93838 14.5296 7.91924 14.5205 7.90158L14.5205 7.90156C14.3857 7.63915 14.0428 7.50489 13.7772 7.62556C13.7772 7.62557 13.7772 7.62558 13.7772 7.62558L13.8185 7.71662L14.5825 15.0028ZM16.4854 13.2567L16.5038 13.355L16.4854 13.2567C16.4854 13.2567 16.4854 13.2567 16.4854 13.2567ZM13.4162 15.0022L13.4262 11.5966C13.4314 9.80715 13.4344 8.89397 13.4461 8.4174C13.4518 8.18052 13.4598 8.04588 13.4724 7.96402C13.4787 7.92247 13.487 7.88896 13.4997 7.86034L13.4162 15.0022ZM13.4162 15.0022L12.651 14.2416C12.2558 13.8488 12.0141 13.6131 11.8552 13.4727C11.7001 13.3357 11.6082 13.2744 11.5148 13.2569M13.4162 15.0022L11.5148 13.2569C11.5148 13.2569 11.5148 13.2569 11.5148 13.2569M11.5148 13.2569C11.1171 13.1824 10.7485 13.5511 10.8221 13.949L11.5148 13.2569ZM23.3215 6.714C23.3717 6.68908 23.4377 6.65636 23.4836 6.58123M23.3215 6.714L23.4836 6.58123M23.4836 6.58123C23.5315 6.50278 23.5543 6.38667 23.5688 6.20344M23.4836 6.58123L23.5688 6.20344M23.5688 6.20344C23.5964 5.85388 23.5964 5.18698 23.5963 3.86793M23.5688 6.20344L23.5963 3.86793M23.5963 3.86793C23.5963 3.78009 23.5963 3.68936 23.5963 3.59564M23.5963 3.86793L23.5963 3.59564M23.5963 3.59564C23.5963 3.47139 23.5963 3.35244 23.5963 3.23856M23.5963 3.59564L23.5963 3.23856M23.5963 3.23856C23.5965 1.97444 23.5966 1.3352 23.5696 0.998133M23.5963 3.23856L23.5696 0.998133M23.5696 0.998133C23.5551 0.817209 23.5319 0.703237 23.4831 0.624892M23.5696 0.998133L23.4831 0.624892M23.4831 0.624892C23.4394 0.55473 23.3766 0.519594 23.3277 0.492222M23.4831 0.624892L23.3277 0.492222M23.3277 0.492222C23.3194 0.487555 23.3115 0.483114 23.3041 0.478764L23.3277 0.492222ZM22.9483 0.429178C23.0574 0.433697 23.1317 0.438988 23.1829 0.44546L22.9483 0.429178ZM22.9483 0.429178C22.7295 0.420116 22.3609 0.413814 21.7348 0.409436M22.9483 0.429178L21.7348 0.409436M21.7348 0.409436C20.482 0.400675 18.1921 0.3996 13.9934 0.400103M21.7348 0.409436L13.9934 0.400103M13.9934 0.400103C9.80053 0.400586 7.51078 0.402215 6.25719 0.411247M13.9934 0.400103L6.25719 0.411247M6.25719 0.411247C5.63073 0.41576 5.26159 0.422128 5.04271 0.431204M6.25719 0.411247L5.04271 0.431204M5.04271 0.431204C4.93359 0.435729 4.85933 0.441014 4.80826 0.447473M5.04271 0.431204L4.80826 0.447473M4.80826 0.447473C4.76179 0.453351 4.71914 0.461613 4.68659 0.481807L4.80826 0.447473ZM6.49487 5.63021H5.56875V3.59749V1.56478H13.9996H22.4305V3.59749V5.63021H21.5044H20.5781L20.576 4.63347C20.5747 4.02781 20.5703 3.68746 20.5373 3.48144C20.5204 3.37619 20.4948 3.29632 20.4523 3.23088C20.4093 3.16482 20.3544 3.12212 20.2967 3.08334L20.16 2.99139L20.1347 2.97437H20.1042H13.9996H7.89506H7.86456L7.83925 2.99139L7.70252 3.08334C7.64485 3.12212 7.58998 3.16482 7.54699 3.23088C7.5044 3.29632 7.47883 3.37619 7.46197 3.48144C7.42896 3.68746 7.4245 4.02781 7.42324 4.63347L7.52324 4.63367L7.42324 4.63347L7.42119 5.63021H6.49487ZM8.74841 18.1285L8.7484 18.1285L8.64705 18.0012L8.63672 11.038L8.62645 4.14013H13.9996H19.3728L19.3625 11.038L19.3522 18.0012L19.2508 18.1285L19.2508 18.1285C19.1921 18.2024 19.0682 18.3036 18.9833 18.3469L19.0288 18.436L18.9833 18.3469L18.8275 18.4265H13.9996H9.17171L9.01594 18.3469C8.93107 18.3036 8.80714 18.2024 8.74841 18.1285Z" fill="#F7FBFF" stroke="white" stroke-width="0.2"/>
<path d="M2.16406 33.2988C2.50781 33.2559 2.85938 33.2109 3.21875 33.1641V25.916H2.33984V25.0957H8.08203V25.5059H13.2031V26.2441C12.75 29.127 12.082 31.25 11.1992 32.6133C11.9375 33.6562 12.8242 34.4668 13.8594 35.0449C13.6406 35.2715 13.4023 35.5605 13.1445 35.9121C12.3086 35.3027 11.4844 34.4512 10.6719 33.3574C9.88281 34.3926 8.94531 35.291 7.85938 36.0527C7.63672 35.7598 7.4375 35.5137 7.26172 35.3145V36.041H6.38281V33.5039C4.95703 33.7266 3.59375 33.9473 2.29297 34.166L2.16406 33.2988ZM7.98828 26.3027V25.916H7.26172V32.5781C7.69922 32.5078 8.14453 32.4355 8.59766 32.3613C8.57422 32.6816 8.5625 32.9512 8.5625 33.1699C8.12109 33.2363 7.6875 33.3027 7.26172 33.3691V35.2559C8.35547 34.6152 9.32031 33.7344 10.1562 32.6133C9.25391 31.1758 8.67383 29.0723 8.41602 26.3027H7.98828ZM12.3242 26.3027H9.26562C9.44922 28.5879 9.92578 30.4277 10.6953 31.8223C11.375 30.6777 11.918 28.8379 12.3242 26.3027ZM6.38281 32.7129V31.002H4.09766V33.0469C4.82812 32.9414 5.58984 32.8301 6.38281 32.7129ZM4.09766 30.252H6.38281V28.459H4.09766V30.252ZM4.09766 27.709H6.38281V25.916H4.09766V27.709ZM22.0391 27.709H22.9062C22.8984 28.3027 22.8887 28.8438 22.877 29.332C23.252 32.1445 24.2422 34.1348 25.8477 35.3027C25.5508 35.5605 25.3086 35.7988 25.1211 36.0176C23.8984 35.0605 23.0469 33.5645 22.5664 31.5293C22.1719 33.3105 21.2344 34.834 19.7539 36.0996C19.582 35.8965 19.3555 35.6816 19.0742 35.4551C20.7695 34.0957 21.7227 32.416 21.9336 30.416C22.0117 29.6816 22.0469 28.7793 22.0391 27.709ZM14.6328 27.5918H16.8242V26.4316H14.2344V25.6816H16.8242V24.498H17.6914V25.6816H20.2695V26.4316H17.6914V27.5918H19.6836V28.3418H14.6328V27.5918ZM19.7422 29.0215C20.3828 27.5996 20.8242 26.0879 21.0664 24.4863L21.9336 24.6387C21.8242 25.2285 21.7012 25.7988 21.5645 26.3496H25.4961V27.1582C25.2852 27.8301 25.0352 28.5605 24.7461 29.3496C24.5273 29.2168 24.2539 29.1035 23.9258 29.0098C24.1836 28.3926 24.4062 27.7793 24.5938 27.1699H21.3418C21.1074 27.9629 20.8398 28.7129 20.5391 29.4199C20.2578 29.2637 19.9922 29.1309 19.7422 29.0215ZM14.2695 31.1191H20.2227V31.8691H17.7148V34.4473C17.7148 35.3379 17.2734 35.7832 16.3906 35.7832C15.9766 35.7832 15.6172 35.7793 15.3125 35.7715C15.2656 35.459 15.207 35.1582 15.1367 34.8691C15.457 34.916 15.7969 34.9395 16.1562 34.9395C16.6172 34.9395 16.8477 34.7012 16.8477 34.2246V31.8691H14.2695V31.1191ZM14.8672 29.3496H19.5781V30.0996H14.8672V29.3496ZM14.1523 34.4238C14.5742 33.8223 14.9844 33.0957 15.3828 32.2441L16.1328 32.6191C15.6953 33.4316 15.2539 34.1699 14.8086 34.834C14.6289 34.6934 14.4102 34.5566 14.1523 34.4238ZM18.2422 32.6426L18.9219 32.2793C19.2969 32.8105 19.6328 33.3574 19.9297 33.9199L19.1914 34.3301C18.8867 33.7051 18.5703 33.1426 18.2422 32.6426Z" fill="white"/>
<defs>
<linearGradient id="paint0_linear_5796_67328" x1="14.0029" y1="9.5" x2="14.0029" y2="19" gradientUnits="userSpaceOnUse">
<stop stop-color="#9CBFF7"/>
<stop offset="1" stop-color="#6998E0"/>
</linearGradient>
</defs>
</svg>
