<svg width="81" height="19" viewBox="0 0 81 19" fill="none" xmlns="http://www.w3.org/2000/svg">
<path d="M18.7106 1.14472L10 5.5V12L18.7106 16.3553C18.8435 16.4218 19 16.3251 19 16.1764V1.32361C19 1.17493 18.8435 1.07823 18.7106 1.14472Z" stroke="#1D6BF5" stroke-width="2"/>
<rect x="1" y="6" width="9" height="5" stroke="#1D6BF5" stroke-width="2"/>
<path d="M3.89504 18L3.11726 11H8.10496L8.88274 18H3.89504Z" stroke="#1D6BF5" stroke-width="2"/>
<path d="M25.3691 16.0615C25.8158 16.016 26.2624 15.9681 26.709 15.918V10.7158H25.2051V9.89551H38.7539V10.7158H31.6172V15.2754C32.0547 15.2116 32.4922 15.1455 32.9297 15.0771C32.9206 15.2412 32.9251 15.5329 32.9434 15.9521C32.515 16.0114 32.0729 16.0729 31.6172 16.1367V17.8799H30.6875V16.2734C29.1198 16.4967 27.429 16.7497 25.6152 17.0322L25.3691 16.0615ZM27.2695 4.94629H36.7305V9.33496H35.7734V9.02051H28.2266V9.33496H27.2695V4.94629ZM32.3008 12.4795V11.6865H37.7285V12.4795C37.2637 13.596 36.653 14.5667 35.8965 15.3916C36.6758 15.9613 37.6419 16.3942 38.7949 16.6904C38.5579 17.0368 38.3529 17.3558 38.1797 17.6475C37.0039 17.2601 36.0127 16.736 35.2061 16.0752C34.4222 16.777 33.5085 17.3512 32.4648 17.7979C32.3099 17.5244 32.1003 17.2373 31.8359 16.9365C32.8704 16.54 33.7614 16.0342 34.5088 15.4189C33.7477 14.6032 33.2054 13.6234 32.8818 12.4795H32.3008ZM28.2266 8.22754H35.7734V7.35254H28.2266V8.22754ZM35.7734 5.73926H28.2266V6.61426H35.7734V5.73926ZM36.6895 12.4795H33.8047C34.0918 13.3773 34.5544 14.1452 35.1924 14.7832C35.8258 14.1178 36.3249 13.3499 36.6895 12.4795ZM30.6875 15.4121V14.4893H27.6387V15.8086C28.6686 15.6855 29.6849 15.5534 30.6875 15.4121ZM27.6387 11.8096H30.6875V10.7158H27.6387V11.8096ZM27.6387 13.6963H30.6875V12.6025H27.6387V13.6963ZM46.8613 5.50684C48.748 5.48861 50.4889 5.30176 52.084 4.94629L52.4395 5.99902C50.6348 6.236 49.099 6.39095 47.832 6.46387V9.64941H52.8223V10.5791H50.8672V17.7432H49.8555V10.5791H47.832V11.249C47.832 14.0472 47.1621 16.2256 45.8223 17.7842C45.6035 17.5016 45.362 17.21 45.0977 16.9092C46.2734 15.624 46.8613 13.7236 46.8613 11.208V5.50684ZM39.5742 11.6455H42.3633V10.3467H43.3477V11.6455H46.0273V12.5205H43.3477V16.0889C43.3477 17.055 42.8828 17.5381 41.9531 17.5381C41.5612 17.5381 41.1191 17.5335 40.627 17.5244C40.5905 17.2236 40.5404 16.8773 40.4766 16.4854C41.0052 16.54 41.4199 16.5674 41.7207 16.5674C42.1491 16.5674 42.3633 16.335 42.3633 15.8701V12.5205H39.5742V11.6455ZM39.1914 9.08887H41.3926C41.0052 8.47363 40.6406 7.94499 40.2988 7.50293L41.0371 6.9834C41.3379 7.34798 41.7253 7.86296 42.1992 8.52832L41.4268 9.08887H43.2314C43.7282 8.37337 44.1862 7.66699 44.6055 6.96973L45.5762 7.5166C45.1341 8.08626 44.7126 8.61035 44.3115 9.08887H46.3828V9.96387H39.1914V9.08887ZM39.6289 5.91699H42.582C42.3861 5.54329 42.1628 5.1377 41.9121 4.7002L42.7871 4.29004C43.0697 4.75488 43.334 5.22428 43.5801 5.69824L43.1221 5.91699H46.0273V6.79199H39.6289V5.91699ZM40.627 13.1357L41.5566 13.5732C41.0645 14.6032 40.5768 15.5329 40.0938 16.3623C39.8294 16.1982 39.5286 16.0342 39.1914 15.8701C39.638 15.1774 40.1165 14.266 40.627 13.1357ZM44.5645 13.2041C45.0749 13.8968 45.5215 14.5348 45.9043 15.1182L45.0293 15.7197C44.6283 15.0179 44.2044 14.3571 43.7578 13.7373L44.5645 13.2041ZM62.0645 12.5205C63.377 14.2249 64.4844 15.7744 65.3867 17.1689L64.3477 17.8525C64.0924 17.4333 63.8213 16.998 63.5342 16.5469C60.5264 16.6927 58.0814 16.8408 56.1992 16.9912C55.8529 17.0277 55.4336 17.1051 54.9414 17.2236L54.3398 16.0615C54.75 15.8975 55.1283 15.6468 55.4746 15.3096C56.541 14.0791 57.6986 12.2607 58.9473 9.85449L60.123 10.3877C58.9928 12.3291 57.7852 14.1429 56.5 15.8291C58.3822 15.7699 60.5127 15.6855 62.8916 15.5762C62.3721 14.7878 61.8001 13.9561 61.1758 13.0811L62.0645 12.5205ZM60.8887 5.16504L61.9004 4.76855C62.7845 7.14746 64.4297 9.03418 66.8359 10.4287C66.5898 10.6839 66.3073 11.0394 65.9883 11.4951C63.4727 9.76335 61.7728 7.65332 60.8887 5.16504ZM53.1641 10.8252C55.1966 9.16634 56.7142 7.21126 57.7168 4.95996L58.7969 5.41113C57.5664 7.97233 55.9805 10.0687 54.0391 11.7002C53.8021 11.3994 53.5104 11.1077 53.1641 10.8252ZM69.2148 12.2197H78.9355V17.7021H77.8418V16.9912H70.3086V17.7021H69.2148V12.2197ZM67.3828 9.74512H73.8633V7.48926H70.1719C69.7936 8.21387 69.388 8.87923 68.9551 9.48535C68.6543 9.27572 68.3171 9.06152 67.9434 8.84277C68.946 7.53027 69.6888 6.1084 70.1719 4.57715L71.3066 4.90527C71.1016 5.45215 70.8874 5.97624 70.6641 6.47754H73.8633V4.33105H74.9844V6.47754H79.7148V7.48926H74.9844V9.74512H80.7402V10.7568H67.3828V9.74512ZM77.8418 13.2041H70.3086V16.0205H77.8418V13.2041Z" fill="#1D6BF5"/>
</svg>
