<svg width="18" height="14" viewBox="0 0 18 14" fill="none" xmlns="http://www.w3.org/2000/svg">
<rect x="1" y="1" width="16" height="12" rx="2" stroke="#8590A2" stroke-width="1.2"/>
<path d="M2.9668 4.87734C2.9668 4.57617 3.21094 4.33203 3.5121 4.33203C3.81327 4.33203 4.05741 4.57617 4.05741 4.87734V9.08966C4.05741 9.39083 3.81327 9.63497 3.5121 9.63497C3.21094 9.63497 2.9668 9.39083 2.9668 9.08966V4.87734ZM6.4657 7.67951C6.52985 7.58008 6.62608 7.54694 6.75439 7.5138C6.8827 7.48065 7.07516 7.48065 7.33177 7.48065H8.06954C8.61485 7.48065 8.99977 7.41436 9.25638 7.24865C9.44884 7.14922 9.57715 6.95036 9.67338 6.71835C9.76961 6.48635 9.83377 6.2212 9.83377 5.88977C9.83377 5.62462 9.80169 5.39262 9.70546 5.19376C9.60923 4.9949 9.513 4.79604 9.35261 4.69661C9.096 4.4646 8.64692 4.36517 7.97331 4.36517H5.79151C5.52609 4.36517 5.31093 4.58034 5.31093 4.84575C5.31093 5.11117 5.52609 5.32633 5.79151 5.32633H7.74877C8.03746 5.32633 8.22992 5.35948 8.35823 5.45891C8.51861 5.55834 8.61485 5.7572 8.61485 5.9892C8.61485 6.2212 8.51861 6.38692 8.32615 6.48635C8.19785 6.55264 8.00538 6.58578 7.71669 6.58578H6.8827C6.52985 6.58578 6.27324 6.61892 6.11285 6.65207C5.95247 6.68521 5.79208 6.78464 5.66378 6.91721C5.37509 7.2155 5.2147 7.67951 5.24678 8.27609V9.17627C5.24678 9.44791 5.46698 9.66811 5.73862 9.66811H9.20937C9.46564 9.66811 9.67338 9.46037 9.67338 9.20411C9.67338 8.94784 9.46564 8.7401 9.20937 8.7401H6.53363C6.42525 8.7401 6.33739 8.65224 6.33739 8.54386V8.20981C6.33739 7.94466 6.36947 7.7458 6.4657 7.67951ZM15.0332 5.79034C15.0332 5.49205 14.969 5.2269 14.8087 4.9949C14.6483 4.72975 14.4558 4.53089 14.1671 4.43146C14.0388 4.39832 13.9426 4.36517 13.8464 4.36517C13.7501 4.36517 13.5256 4.33203 13.2048 4.33203H11.2796C11.0142 4.33203 10.7991 4.54719 10.7991 4.81261C10.7991 5.07803 11.0142 5.29319 11.2796 5.29319H13.0124C13.2048 5.29319 13.3331 5.29319 13.3973 5.32633C13.4614 5.32633 13.5256 5.35948 13.5897 5.42576C13.7501 5.52519 13.8143 5.69091 13.8143 5.92291C13.8143 6.12177 13.7501 6.28749 13.6218 6.38692C13.5256 6.48635 13.3011 6.51949 12.9803 6.51949H11.7121C11.4559 6.51949 11.2481 6.72724 11.2481 6.9835C11.2481 7.23977 11.4559 7.44751 11.7121 7.44751H12.9803C13.2369 7.44751 13.4294 7.48065 13.5577 7.54694C13.718 7.64637 13.8143 7.84523 13.8143 8.11038C13.8143 8.34238 13.7501 8.5081 13.6218 8.60753C13.5256 8.70696 13.3011 8.7401 13.0124 8.7401H11.2631C11.0068 8.7401 10.7991 8.94784 10.7991 9.20411C10.7991 9.46037 11.0068 9.66811 11.2631 9.66811H13.0765C13.4614 9.66811 13.7501 9.63497 13.9426 9.60183C14.135 9.56868 14.3275 9.5024 14.4879 9.36982C14.8728 9.13782 15.0332 8.7401 15.0332 8.24295C15.0332 7.71265 14.8087 7.28179 14.3596 6.95036C14.8087 6.65207 15.0332 6.28749 15.0332 5.79034Z" fill="#8590A2"/>
</svg>
