<svg width="40" height="21" viewBox="0 0 40 21" fill="none" xmlns="http://www.w3.org/2000/svg">
<path d="M7 4L1 10L7 16" stroke="#8590A2" stroke-linecap="round"/>
<path d="M14.695 4.66C15.595 5.38 16.35 6.09 16.96 6.79L16.27 7.45C15.72 6.78 14.98 6.06 14.05 5.29L14.695 4.66ZM22.405 16.45C22.045 16.45 21.67 16.445 21.28 16.435C20.9 16.425 20.495 16.415 20.065 16.405C19.655 16.395 19.275 16.37 18.925 16.33C18.575 16.3 18.27 16.245 18.01 16.165C17.53 16.015 17.07 15.69 16.63 15.19C16.46 14.97 16.29 14.86 16.12 14.86C15.81 14.86 15.28 15.47 14.53 16.69L13.81 16.06C14.54 14.92 15.175 14.24 15.715 14.02V9.97H13.81V9.1H16.6V14.065C16.71 14.165 16.815 14.27 16.915 14.38C17.075 14.58 17.24 14.75 17.41 14.89C17.58 15.03 17.76 15.145 17.95 15.235C18.33 15.425 18.915 15.53 19.705 15.55C20.055 15.56 20.445 15.57 20.875 15.58C21.305 15.58 21.775 15.58 22.285 15.58C22.605 15.58 22.92 15.58 23.23 15.58C23.55 15.57 23.88 15.565 24.22 15.565C24.89 15.545 25.395 15.53 25.735 15.52L25.51 16.45H22.405ZM25.075 5.44C24.225 5.67 23.32 5.85 22.36 5.98C21.41 6.1 20.405 6.175 19.345 6.205L19.36 7.735H24.97V8.41C24.57 9.65 24.015 10.76 23.305 11.74C23.715 12.11 24.1 12.485 24.46 12.865C24.83 13.245 25.18 13.63 25.51 14.02L24.865 14.77C24.255 13.97 23.555 13.2 22.765 12.46C22.335 12.94 21.87 13.385 21.37 13.795C20.87 14.195 20.315 14.565 19.705 14.905L19.15 14.155C20.31 13.515 21.285 12.74 22.075 11.83C21.325 11.16 20.525 10.53 19.675 9.94L20.245 9.25C20.665 9.55 21.075 9.855 21.475 10.165C21.875 10.475 22.265 10.795 22.645 11.125C22.935 10.725 23.195 10.315 23.425 9.895C23.655 9.475 23.845 9.03 23.995 8.56H19.345C19.305 11.15 18.855 13.11 17.995 14.44L17.14 14.02C18 12.66 18.445 10.75 18.475 8.29V5.365C20.885 5.325 22.935 5.075 24.625 4.615L25.075 5.44ZM30.4108 8.185H35.5408V12.91H30.4108V8.185ZM34.6108 12.115V9.01H31.2958V12.115H34.6108ZM38.2858 5.275V16.465H37.3408V15.895H28.5508V16.465H27.6208V5.275H38.2858ZM28.5508 15.04H37.3408V6.13H28.5508V15.04Z" fill="#8590A2"/>
</svg>
