<svg width="22" height="12" viewBox="0 0 22 12" fill="none" xmlns="http://www.w3.org/2000/svg">
<rect x="0.242188" width="21.7478" height="12" rx="2" fill="url(#paint0_linear_8165_6859)"/>
<path d="M13.864 8.50537L12.5344 3.49463H13.2146L13.9768 6.7793C14.0588 7.12337 14.1295 7.46517 14.1887 7.80469C14.3163 7.26921 14.3915 6.96045 14.4143 6.87842L15.3679 3.49463H16.1677L16.8855 6.03076C17.0655 6.65967 17.1954 7.25098 17.2751 7.80469C17.3389 7.48796 17.4221 7.12451 17.5247 6.71436L18.3108 3.49463H18.9773L17.6033 8.50537H16.9641L15.908 4.6875C15.8191 4.36849 15.7667 4.17253 15.7507 4.09961C15.6983 4.32975 15.6493 4.52572 15.6038 4.6875L14.5408 8.50537H13.864Z" fill="white"/>
<path d="M8.33374 8.50537V3.49463H11.9568V4.08594H8.99683V5.62061H11.7688V6.2085H8.99683V7.91406H12.073V8.50537H8.33374Z" fill="white"/>
<path d="M3.25464 8.50537V3.49463H3.93481L6.56665 7.42871V3.49463H7.20239V8.50537H6.52222L3.89038 4.56787V8.50537H3.25464Z" fill="white"/>
<defs>
<linearGradient id="paint0_linear_8165_6859" x1="1.38681" y1="0.6" x2="21.272" y2="11.1995" gradientUnits="userSpaceOnUse">
<stop stop-color="#F26818"/>
<stop offset="1" stop-color="#F29318"/>
</linearGradient>
</defs>
</svg>
