<svg width="37" height="24" viewBox="0 0 37 24" fill="none" xmlns="http://www.w3.org/2000/svg">
<path fill-rule="evenodd" clip-rule="evenodd" d="M5.40739 2.41847C3.47507 2.62229 1.62506 3.32795 0.730882 4.20234C-0.0186993 4.93528 0.0389278 4.1976 0.00619457 13.4793C-0.0132971 19.0055 0.0132925 21.9344 0.0847972 22.1228C0.530245 23.2965 2.85081 24.1141 5.18896 23.9211C6.58208 23.8061 6.69935 23.7627 12.5556 21.1968C15.5487 19.8854 18.042 18.8125 18.0962 18.8125C18.1506 18.8125 20.6284 19.8788 23.6024 21.1821C26.5766 22.4853 29.2118 23.6079 29.4585 23.6767C31.4528 24.2332 34.0448 23.9319 35.3486 22.992C36.2283 22.3577 36.1531 23.1727 36.1886 13.8916C36.2113 7.94137 36.1866 5.51717 36.1003 5.22518C35.7248 3.95594 34.0113 2.95829 31.4256 2.50358L30.6485 2.36696L18.3603 2.35763C8.27203 2.34998 5.95316 2.36089 5.40739 2.41847Z" fill="#1B1D21"/>
<rect x="3.62207" y="0.555664" width="28.9573" height="3.6" rx="1.8" fill="#1B1D21"/>
<path d="M11.6696 8.54492L13.1071 8.30273C13.1332 8.46419 13.1722 8.67253 13.2243 8.92773C13.3753 9.56836 13.5238 10.1204 13.6696 10.584C13.7582 10.86 13.8519 11.0762 13.9509 11.2324V8.53711L15.3962 8.30273C15.1983 10.1986 15.1566 11.8079 15.2712 13.1309L13.9665 13.4434C13.9613 13.4225 13.904 13.3392 13.7946 13.1934L13.1227 12.1699C13.0082 11.9928 12.9405 11.8835 12.9196 11.8418C12.9196 12.3678 12.9405 12.9017 12.9821 13.4434L11.6774 13.7637L11.6696 8.54492ZM17.1149 9.79492L17.0602 10.4902L17.6462 10.4043L18.2243 10.2949L18.279 10.7793L18.3493 11.2715L17.0602 11.4824L17.0446 12.1309L18.6149 11.9121L18.779 13.1934C18.404 13.2142 17.9483 13.2663 17.4118 13.3496C16.9066 13.4329 16.3441 13.5423 15.7243 13.6777C15.7191 13.5736 15.7165 13.3991 15.7165 13.1543L15.6931 11.1855C15.6878 10.0918 15.68 9.26367 15.6696 8.70117L18.4743 8.37305L18.6462 9.64648L18.2399 9.67773C18.0733 9.68815 17.9431 9.69857 17.8493 9.70898L17.1149 9.79492ZM24.1071 8.67773C23.654 10.1048 23.3155 11.6829 23.0915 13.4121L21.6774 13.709L21.3806 11.4434L21.0759 13.6074L19.8024 13.6855C19.6045 12.0866 19.2556 10.485 18.7556 8.88086L20.1384 8.5918L20.5681 10.9746L20.8571 8.43555L22.0056 8.3418L22.3415 11.1309L22.7634 8.39648L24.1071 8.67773Z" fill="white"/>
</svg>
