<svg width="33" height="32" viewBox="0 0 33 32" fill="none" xmlns="http://www.w3.org/2000/svg">
<path fill-rule="evenodd" clip-rule="evenodd" d="M15.0073 3.50695C13.3767 3.77363 11.9308 4.34061 10.6579 5.21262C9.94387 5.7017 8.81656 6.79474 8.2538 7.54364C7.73496 8.23402 7.10803 9.40625 6.82068 10.2232C6.654 10.697 6.59077 10.7967 6.41901 10.8566C5.97843 11.0102 5.05006 11.4962 4.52099 11.8502C3.81394 12.3234 2.55601 13.578 2.08946 14.2755C-0.516894 18.1718 0.137575 23.2359 3.64548 26.3154C4.57757 27.1337 5.588 27.7075 6.82719 28.1222C8.23978 28.5949 8.09041 28.5886 17.3998 28.5654L25.7825 28.5445L26.4621 28.3553C28.7949 27.7057 30.6106 26.2651 31.6379 24.2485C32.3133 22.9226 32.5091 22.0707 32.4997 20.4984C32.4935 19.4716 32.4686 19.2281 32.3085 18.6263C31.6036 15.9772 29.6993 13.8875 27.1922 13.0122C26.9294 12.9204 26.8055 12.8362 26.7874 12.7369C26.7731 12.6582 26.7087 12.2719 26.6444 11.8785C26.3145 9.863 25.3247 7.98136 23.7826 6.43843C22.3118 4.96683 20.6146 4.04353 18.5774 3.60667C17.6951 3.41746 15.8666 3.36638 15.0073 3.50695ZM15.8249 10.3978C15.3079 10.5826 14.9127 10.8741 14.6579 11.2586C14.2535 11.8692 14.2297 12.061 14.2297 14.7115V17.1251L12.8826 17.1486C11.5465 17.1718 11.5336 17.1736 11.2832 17.3647C10.8137 17.7231 10.677 18.2712 10.9335 18.7665C11.0091 18.9125 12.176 20.1318 13.5266 21.4761C16.1814 24.1185 16.1428 24.089 16.7871 23.9699C17.0197 23.927 17.3812 23.5961 19.511 21.4761C20.8616 20.1318 22.0285 18.9125 22.1042 18.7665C22.3607 18.2712 22.224 17.7231 21.7544 17.3647C21.5041 17.1736 21.4909 17.1718 20.1583 17.1486L18.8146 17.1252L18.7934 14.5734L18.7721 12.0216L18.5847 11.622C18.0933 10.574 16.8612 10.0275 15.8249 10.3978Z" fill="#1D6BF5" fill-opacity="0.5"/>
</svg>
