<svg width="33" height="40" viewBox="0 0 33 40" fill="none" xmlns="http://www.w3.org/2000/svg">
<path fill-rule="evenodd" clip-rule="evenodd" d="M11.5478 0.46159C11.2183 0.607239 10.8279 1.03443 10.735 1.35099C10.6851 1.52113 10.6643 2.51257 10.6793 4.0083L10.7032 6.39419L10.9144 6.7132C11.0306 6.88872 11.2625 7.10201 11.4296 7.18731C11.7249 7.33795 11.8696 7.3424 16.5 7.3424C21.1304 7.3424 21.2751 7.33795 21.5704 7.18731C21.7375 7.10201 21.9694 6.88864 22.0856 6.71305L22.2968 6.39388V3.84898V1.304L22.1117 1.03405C22.01 0.885484 21.8052 0.680716 21.6567 0.578984L21.3868 0.393948L16.5825 0.376826C12.7298 0.36316 11.7325 0.379974 11.5478 0.46159ZM3.9851 3.95916C3.30385 4.16715 2.65246 4.71834 2.32546 5.36367C2.2195 5.57281 2.1051 5.98865 2.06065 6.32601C2.00921 6.71727 1.99009 12.1379 2.00483 22.199L2.02725 37.478L2.20415 37.9158C2.43924 38.4977 2.97523 39.0798 3.55483 39.3828L4.02349 39.6278H16.5H28.9765L29.4247 39.4009C29.9901 39.1147 30.5613 38.4968 30.7945 37.9192L30.9727 37.478L30.9952 22.199C31.0099 12.1379 30.9908 6.71727 30.9394 6.32601C30.8067 5.3186 30.3131 4.58959 29.459 4.13951L29.0533 3.92576L26.9995 3.90196L24.9456 3.87823V5.10746C24.9456 6.53116 24.8772 6.93962 24.509 7.71539C24.0323 8.71989 23.0187 9.54641 21.9097 9.83533C21.2362 10.0108 11.7638 10.0108 11.0903 9.83533C9.98127 9.54641 8.96772 8.71989 8.491 7.71539C8.12293 6.94009 8.05436 6.53109 8.05436 5.11207V3.88737L6.1157 3.89397C5.0494 3.89758 4.09067 3.92691 3.9851 3.95916ZM10.5497 14.8285C10.1592 14.9665 9.76775 15.3887 9.70119 15.7434C9.59231 16.324 9.86365 16.9195 10.3565 17.1814C10.6102 17.3162 10.9285 17.3236 16.5 17.3236C22.0715 17.3236 22.3898 17.3162 22.6435 17.1814C23.1396 16.9178 23.4078 16.3241 23.297 15.7342C23.2284 15.3684 22.776 14.911 22.3718 14.7988C22.1614 14.7403 20.3239 14.7149 16.4616 14.7169C11.8319 14.7194 10.8033 14.7388 10.5497 14.8285ZM10.3577 22.3018C9.86027 22.5669 9.59216 23.1598 9.70295 23.7501C9.7732 24.1247 10.226 24.5762 10.6445 24.6889C10.8704 24.7497 12.6351 24.7687 16.6688 24.7539C23.0256 24.7304 22.6358 24.7641 23.0675 24.1982C23.4791 23.6587 23.3612 22.8262 22.8142 22.4089L22.5391 22.199L16.5828 22.1788C10.8955 22.1595 10.6143 22.165 10.3577 22.3018ZM10.4729 29.6402C10.1867 29.768 9.85628 30.1146 9.7484 30.4001C9.53089 30.9757 9.80077 31.6721 10.3546 31.965L10.689 32.1419H16.5H22.311L22.6454 31.965C23.2203 31.661 23.4797 30.9436 23.2276 30.3543C23.0997 30.0555 22.7587 29.7242 22.4645 29.6131C22.1158 29.4813 10.7713 29.507 10.4729 29.6402Z" fill="#1D6BF5" fill-opacity="0.5"/>
</svg>
