<svg width="33" height="32" viewBox="0 0 33 32" fill="none" xmlns="http://www.w3.org/2000/svg">
<path fill-rule="evenodd" clip-rule="evenodd" d="M15.9089 0.194916C15.7162 0.335615 15.5583 0.59419 15.0398 1.61755L14.4061 2.86821L13.0446 3.0665C11.5765 3.28037 11.3844 3.34515 11.1389 3.70941C10.9852 3.93759 10.9525 4.3288 11.0618 4.63071C11.0969 4.72751 11.5824 5.2486 12.1405 5.78864L13.1554 6.7706L12.912 8.20705L12.6686 9.64343L12.8182 9.94522C13.015 10.342 13.2981 10.5285 13.7035 10.5285C13.9771 10.5285 14.163 10.4502 15.2597 9.87318L16.5052 9.21783L17.7481 9.87318C18.8407 10.4492 19.0286 10.5285 19.3002 10.5285C19.7037 10.5285 19.9873 10.3414 20.1837 9.94522L20.3334 9.64343L20.0899 8.2068L19.8465 6.77016L20.8231 5.83773C21.3603 5.32483 21.8458 4.80849 21.9018 4.69018C22.0498 4.37839 22.0334 3.96217 21.863 3.70941C21.6129 3.33827 21.4134 3.27074 19.9487 3.06113L18.5958 2.86759L17.9621 1.61723C17.2189 0.150767 17.1018 0.0229492 16.501 0.0229492C16.2107 0.0229492 16.1006 0.0549662 15.9089 0.194916ZM5.58274 3.0186C5.25044 3.16956 5.18396 3.27149 4.50836 4.66604C4.19594 5.31095 3.9136 5.83854 3.88096 5.83854C3.52758 5.83854 1.16858 6.23988 0.994863 6.32961C0.573139 6.54729 0.380537 7.13792 0.577517 7.60935C0.625354 7.72398 1.09873 8.23206 1.66103 8.77241L2.6595 9.73192L2.42031 11.1458C2.2202 12.3284 2.1925 12.5956 2.25091 12.7792C2.40305 13.257 2.93646 13.5925 3.38989 13.4953C3.49876 13.472 4.11358 13.1748 4.75617 12.8349C5.39877 12.495 5.95569 12.2169 5.99377 12.2169C6.03185 12.2169 6.64268 12.5153 7.35118 12.8801C8.54237 13.4934 8.65856 13.5403 8.8935 13.5027C9.2702 13.4425 9.53227 13.2512 9.69292 12.9194L9.83493 12.6261L9.59562 11.1951L9.35631 9.76412L10.3581 8.75496C10.9091 8.19992 11.391 7.68433 11.4291 7.60923C11.5502 7.37035 11.5136 6.88022 11.3574 6.64847C11.1176 6.29266 10.9386 6.23325 9.45811 6.01832L8.07744 5.81784L7.45855 4.57443C7.11812 3.89057 6.76924 3.26392 6.68326 3.18181C6.37041 2.88303 6.00165 2.82838 5.58274 3.0186ZM26.475 3.10371C26.2467 3.23128 26.1682 3.35541 25.5732 4.53078L24.9214 5.81815L23.5408 6.02064C22.0632 6.23731 21.881 6.29766 21.6445 6.64847C21.4884 6.88022 21.4518 7.37035 21.5729 7.60923C21.6109 7.68433 22.0929 8.19992 22.6439 8.75496L23.6456 9.76412L23.4063 11.1951L23.167 12.6261L23.3037 12.9062C23.4641 13.235 23.7472 13.4455 24.1056 13.5024C24.3441 13.5404 24.4551 13.4957 25.6508 12.8801C26.3593 12.5153 26.9707 12.2169 27.0094 12.2169C27.0482 12.2169 27.6078 12.4951 28.253 12.8352C28.8982 13.1752 29.5147 13.4729 29.6231 13.4967C30.0506 13.5906 30.5523 13.2812 30.7272 12.816C30.8182 12.5737 30.811 12.4897 30.5833 11.1539L30.3436 9.74687L31.3424 8.77773C31.8918 8.24463 32.3791 7.71791 32.4254 7.60723C32.623 7.13416 32.4119 6.51765 31.9824 6.31385C31.8621 6.25676 31.1527 6.12025 30.4061 6.01051L29.0484 5.81102L28.4675 4.61927C27.7674 3.183 27.5699 2.96082 26.9951 2.96301C26.8338 2.96364 26.6245 3.02029 26.475 3.10371ZM5.73357 15.0599C4.7977 15.3191 4.01103 16.0343 3.66791 16.9379L3.52533 17.3134V21.9721C3.52533 26.5843 3.52665 26.6344 3.65947 26.9853C3.97563 27.8204 4.64949 28.4943 5.48462 28.8104C5.83012 28.9412 5.93042 28.945 9.46599 28.9617L13.0929 28.9788L14.5312 30.409C15.3222 31.1956 16.0309 31.8702 16.106 31.9083C16.1812 31.9463 16.3589 31.9774 16.501 31.9774C16.6431 31.9774 16.8208 31.9463 16.8959 31.9083C16.971 31.8702 17.6797 31.1957 18.4708 30.4092L19.909 28.9794L23.5672 28.962L27.2254 28.9446L27.5721 28.8001C28.2571 28.5147 28.9845 27.8292 29.2437 27.2249C29.503 26.6203 29.5064 26.552 29.5064 21.9721C29.5064 17.1993 29.5098 17.2519 29.1616 16.5638C28.8686 15.9847 28.2497 15.4351 27.5609 15.1422L27.2254 14.9997L16.626 14.9892C8.10352 14.9807 5.96926 14.9946 5.73357 15.0599ZM8.05661 19.1112C7.75627 19.2627 7.49619 19.6617 7.49619 19.971C7.49619 20.2804 7.75627 20.6794 8.05661 20.8309L8.33564 20.9716H16.501H24.6663L24.9453 20.8309C25.2457 20.6794 25.5058 20.2804 25.5058 19.971C25.5058 19.6617 25.2457 19.2627 24.9453 19.1112L24.6663 18.9705H16.501H8.33564L8.05661 19.1112ZM8.05661 23.1133C7.75627 23.2648 7.49619 23.6638 7.49619 23.9732C7.49619 24.2825 7.75627 24.6815 8.05661 24.833L8.33564 24.9737H16.501H24.6663L24.9453 24.833C25.2457 24.6815 25.5058 24.2825 25.5058 23.9732C25.5058 23.6638 25.2457 23.2648 24.9453 23.1133L24.6663 22.9726H16.501H8.33564L8.05661 23.1133Z" fill="#1D6BF5" fill-opacity="0.5"/>
</svg>
