<svg width="35" height="34" viewBox="0 0 35 34" fill="none" xmlns="http://www.w3.org/2000/svg">
<path fill-rule="evenodd" clip-rule="evenodd" d="M16.351 0.0176652C14.6872 0.185611 13.9139 0.326032 12.7275 0.675487C6.72816 2.44245 2.04874 7.55051 0.828234 13.6648C0.378981 15.9152 0.391015 18.2296 0.863605 20.4564C1.36292 22.8093 2.46694 25.261 3.87247 27.1383C4.09148 27.4308 4.26581 27.6755 4.25976 27.682C4.25378 27.6886 4.03982 27.6491 3.78425 27.5943C3.2219 27.4737 2.83302 27.5054 2.56926 27.6933C1.98125 28.112 2.05824 29.0836 2.70323 29.384C3.03407 29.538 7.20001 30.3153 7.4645 30.2724C7.92758 30.1972 8.27218 29.8006 8.27258 29.342C8.27305 28.8584 7.73849 25.2767 7.62799 25.0231C7.49581 24.7198 7.07156 24.445 6.7378 24.4466C6.42664 24.4482 6.01807 24.6975 5.86961 24.9764C5.73823 25.2233 5.72075 25.5378 5.80864 26.0735L5.86296 26.4048L5.66609 26.1732C4.85083 25.214 3.79894 23.2254 3.29271 21.6864C2.36747 18.8732 2.26721 16.1134 2.98813 13.3004C4.06874 9.0843 6.98972 5.49958 10.9436 3.53735C13.7838 2.12776 16.8763 1.69148 20.0797 2.24837L20.883 2.38806L21.1916 2.25149C21.6246 2.06001 21.7843 1.78648 21.7525 1.29076C21.7314 0.96331 21.6955 0.87435 21.5051 0.677814C21.26 0.424964 20.9411 0.331816 19.6754 0.143193C19.0228 0.0459222 16.8744 -0.035192 16.351 0.0176652ZM27.2895 3.81813C26.9776 3.97484 26.7562 4.31977 26.7562 4.64928C26.7562 5.13989 27.2899 8.71988 27.4011 8.97499C27.5333 9.2783 27.9575 9.55303 28.2913 9.55143C28.6024 9.5499 29.011 9.30058 29.1595 9.02167C29.2908 8.7748 29.3083 8.46025 29.2204 7.92463L29.1661 7.59326L29.363 7.8249C30.1812 8.78763 31.2327 10.7771 31.7343 12.3117C32.6597 15.1429 32.7605 17.8903 32.0416 20.6951C30.9597 24.9163 28.0523 28.4845 24.0855 30.4593C21.2631 31.8643 18.1369 32.3061 14.9494 31.7501L14.1461 31.61L13.8375 31.7466C13.4045 31.9381 13.2448 32.2116 13.2766 32.7073C13.311 33.2427 13.5675 33.5083 14.1837 33.6469C16.031 34.0623 18.3641 34.1135 20.3402 33.7818C26.6858 32.7169 32.0551 27.9177 33.8695 21.6891C34.3511 20.0361 34.5024 18.9181 34.5 17.0323C34.4976 15.27 34.4031 14.4866 34.0025 12.9101C33.3928 10.511 32.4034 8.4784 30.8651 6.46464C30.7681 6.33759 30.75 6.28207 30.8137 6.30627C31.076 6.4062 31.8854 6.50706 32.1005 6.4667C32.4155 6.4076 32.7859 6.03986 32.8444 5.7281C32.9339 5.25105 32.7243 4.80041 32.3258 4.61325C32.107 4.51046 27.9874 3.70158 27.6837 3.70178C27.5942 3.70178 27.4167 3.75417 27.2895 3.81813ZM16.6835 6.60114C14.4808 6.83032 12.6047 7.53927 10.9877 8.75332C6.52351 12.1053 5.46198 18.1321 8.52251 22.7502C10.0641 25.0763 12.4481 26.6685 15.3607 27.3171C15.9318 27.4443 16.2159 27.4636 17.5145 27.4636C19.1824 27.4636 19.667 27.3912 21.0124 26.941C24.1648 25.8862 26.6976 23.3784 27.72 20.2997C28.9269 16.6653 28.0289 12.7076 25.3683 9.93566C23.7237 8.22216 21.594 7.10298 19.2483 6.71949C18.6559 6.62261 17.1463 6.55294 16.6835 6.60114ZM17.2233 9.95162C16.7218 10.1072 16.5172 10.5111 16.5172 11.3455V11.946H16.232C15.5451 11.946 14.8184 12.2581 14.2354 12.8034C13.0212 13.9392 13.0192 15.9752 14.2309 17.1615C14.5642 17.4877 14.8591 17.6724 15.3537 17.8648C15.7214 18.0078 15.8829 18.0229 17.4148 18.058C18.9959 18.0942 19.0871 18.1033 19.2849 18.2443C19.5847 18.4583 19.7298 18.8044 19.695 19.2236C19.6619 19.622 19.5127 19.8567 19.1677 20.0529C18.9431 20.1806 18.8199 20.1904 17.4352 20.1904H15.9444L15.4829 19.9579C14.9975 19.7134 14.7854 19.6793 14.4771 19.7957C13.7699 20.063 13.5989 20.9548 14.1603 21.4478C14.6402 21.8691 15.519 22.181 16.2347 22.1839L16.5172 22.185V22.8011C16.5172 23.773 16.794 24.1464 17.5145 24.1464C18.2314 24.1464 18.5118 23.7719 18.5118 22.8146V22.2121L19.0465 22.1342C20.1346 21.9756 20.961 21.3761 21.4216 20.4113C21.6639 19.904 21.67 19.8725 21.67 19.1266C21.67 18.3815 21.6637 18.3489 21.423 17.8448C21.0433 17.0498 20.3888 16.4704 19.543 16.1807C19.433 16.143 18.5896 16.0948 17.6688 16.0735C16.1073 16.0376 15.982 16.0256 15.8072 15.8959C15.1281 15.3921 15.151 14.4561 15.8526 14.044C16.0667 13.9182 16.1929 13.9074 17.4481 13.9074C18.9832 13.9074 19.1475 13.9402 19.6089 14.3396C20.1432 14.802 20.6385 14.8439 21.0722 14.4631C21.3772 14.1953 21.4867 13.8359 21.376 13.4664C21.1653 12.7632 19.7921 11.9535 18.8005 11.9476L18.5239 11.946L18.5013 11.2526C18.4825 10.6785 18.455 10.5275 18.3415 10.3757C18.052 9.98839 17.6258 9.82676 17.2233 9.95162Z" fill="#1D6BF5" fill-opacity="0.5"/>
</svg>
