<svg width="33" height="32" viewBox="0 0 33 32" fill="none" xmlns="http://www.w3.org/2000/svg">
<path fill-rule="evenodd" clip-rule="evenodd" d="M14.3753 0.108749C12.0367 0.43198 9.67636 1.31831 7.7266 2.60546C3.81708 5.18633 1.22137 9.31812 0.599238 13.9506C0.466921 14.936 0.466921 17.0567 0.599238 18.0421C1.22137 22.6746 3.81708 26.8064 7.7266 29.3873C9.71998 30.7032 12.0664 31.5734 14.4799 31.8917C15.4094 32.0143 17.4294 32.0303 18.3226 31.9222C23.0333 31.352 27.2657 28.7318 29.8851 24.7639C31.1907 22.7862 32.0684 20.4301 32.3891 18.0421C32.6052 16.433 32.4983 14.134 32.131 12.4893C31.2383 8.49221 28.7114 4.87523 25.1887 2.55256C23.2544 1.27725 20.7185 0.360524 18.3226 0.0705371C17.4842 -0.0309473 15.2281 -0.00910159 14.3753 0.108749ZM15.6001 6.71474C13.8885 7.02781 12.4736 8.10462 11.7086 9.67642C10.9946 11.1433 10.9833 12.5829 11.6817 13.0811C11.8901 13.2297 12.0135 13.2565 12.4886 13.2565C12.9411 13.2565 13.0885 13.2274 13.2513 13.1058C13.6214 12.8295 13.7205 12.62 13.8214 11.9011C13.9802 10.768 14.4051 10.1008 15.2652 9.63455C15.7077 9.39462 15.7591 9.38417 16.4942 9.38417C17.2292 9.38417 17.2806 9.39462 17.7232 9.63455C19.3655 10.525 19.6462 12.6931 18.2807 13.941C17.8051 14.3758 17.2993 14.5826 16.4911 14.673C16.0439 14.723 15.8509 14.7818 15.6634 14.9248C15.1887 15.2869 15.1789 15.3493 15.1802 18.0166C15.1814 20.3647 15.1849 20.423 15.345 20.7089C15.8014 21.5249 17.1869 21.5249 17.6434 20.7089C17.7986 20.4315 17.807 20.336 17.8081 18.826L17.8093 17.2353L18.0102 17.1557C19.5814 16.5326 20.6188 15.6384 21.2774 14.3392C21.6716 13.5618 21.7878 13.0262 21.7896 11.9779C21.7909 11.2218 21.7618 10.9703 21.6201 10.5166C21.0568 8.71264 19.7666 7.41439 17.992 6.86598C17.4177 6.68858 16.1736 6.60989 15.6001 6.71474ZM15.8497 24.1562C15.4423 24.3569 15.2257 24.7134 15.1923 25.2382C15.1571 25.7906 15.2997 26.1425 15.6744 26.4284C16.0408 26.7078 16.7698 26.7426 17.1868 26.5006C17.6317 26.2424 17.8202 25.8583 17.7921 25.2673C17.7655 24.7088 17.5552 24.3566 17.1265 24.1532C16.8043 24.0003 16.163 24.0018 15.8497 24.1562Z" fill="#1D6BF5" fill-opacity="0.5"/>
</svg>
