<svg width="44" height="44" viewBox="0 0 44 44" fill="none" xmlns="http://www.w3.org/2000/svg">
<circle cx="22" cy="22" r="21.5" fill="#DCDFE4" stroke="white"/>
<path fill-rule="evenodd" clip-rule="evenodd" d="M33 18.8599C33 24.935 28.0751 29.8599 22 29.8599C15.9249 29.8599 11 24.935 11 18.8599C11 12.7847 15.9249 7.85986 22 7.85986C28.0751 7.85986 33 12.7847 33 18.8599ZM17.1238 22.5835C16.7219 22.4715 16.3512 22.8499 16.5382 23.2228C17.609 25.3579 19.6549 26.8011 22.0029 26.8011C24.3509 26.8011 26.3969 25.3578 27.4677 23.2226C27.6547 22.8496 27.2839 22.4713 26.882 22.5832C25.4131 22.9925 23.756 23.2228 22.0025 23.2228C20.2493 23.2228 18.5925 22.9926 17.1238 22.5835ZM15.7131 33.0027C14.8453 33.0027 14.1417 33.7063 14.1417 34.5741C14.1417 35.442 14.8453 36.1456 15.7131 36.1456H28.2846C29.1524 36.1456 29.856 35.442 29.856 34.5741C29.856 33.7063 29.1524 33.0027 28.2846 33.0027H15.7131Z" fill="white"/>
</svg>
