<svg width="35" height="32" viewBox="0 0 35 32" fill="none" xmlns="http://www.w3.org/2000/svg">
<path fill-rule="evenodd" clip-rule="evenodd" d="M28.2156 1.93828C27.7045 2.09844 27.2538 2.41198 26.7063 2.98833L26.1779 3.54462L5.02016 12.3052L4.64069 11.9462C4.17274 11.5037 3.88804 11.3523 3.41949 11.2968C2.18355 11.1504 1.13202 12.2734 0.644456 14.2604C0.461508 15.0061 0.460623 16.9301 0.642907 17.707C0.892884 18.7725 1.38318 19.7346 1.89803 20.1702C2.02626 20.2787 2.30942 20.4493 2.52725 20.5495C2.85148 20.6985 2.99947 20.7245 3.3448 20.6933C3.86613 20.6459 4.1532 20.5013 4.64092 20.0401L5.0206 19.6809L7.33396 20.4951C8.60626 20.9429 9.65948 21.3216 9.67445 21.3366C9.68942 21.3515 9.44858 21.7896 9.13932 22.3101C8.4458 23.4773 8.33571 23.8264 8.37538 24.7336C8.40185 25.3391 8.4357 25.4767 8.67933 25.9697C8.95475 26.5269 9 26.4003 9.97855 27.3829C10.8889 28.2892 12.7033 29.9954 13.0497 30.0686C14.2202 30.316 15.5019 29.9236 16.3884 29.0465C16.7352 28.7033 16.9165 28.4074 17.5466 27.1566L18.2935 25.6736L19.8637 26.2243C20.7274 26.5272 22.5059 27.1522 23.816 27.6132L26.198 28.4514L26.7533 29.0416C28.145 30.521 29.7482 30.5269 31.1497 29.0576C32.6826 27.4505 33.838 23.9613 34.2547 19.6802C34.4989 17.1719 34.5495 15.9197 34.4562 14.6899C34.2146 11.5052 33.987 9.84441 33.5541 8.10814C32.688 4.63368 31.2943 2.42997 29.6609 1.95236C29.1881 1.8141 28.6293 1.80865 28.2156 1.93828ZM28.5809 5.24572C28.0575 5.86292 27.4702 7.59425 27.1112 9.57791C26.4266 13.3598 26.4266 18.6267 27.1112 22.4086C27.5748 24.9701 28.3869 26.9804 28.9582 26.9804C29.1848 26.9804 29.4257 26.6612 29.7971 25.8687C30.4862 24.3981 31.0046 21.7763 31.2101 18.7216C31.3193 17.099 31.2575 13.2482 31.0993 11.827C30.7655 8.82592 30.1203 6.39281 29.3798 5.34232C29.0862 4.92583 28.874 4.90017 28.5809 5.24572ZM0.5 15.9932C0.5 16.4597 0.51202 16.6505 0.52662 16.4173C0.54122 16.184 0.54122 15.8024 0.52662 15.5692C0.51202 15.3361 0.5 15.5268 0.5 15.9932ZM12.1315 23.4397C11.7932 24.0068 11.5325 24.5131 11.5524 24.5648C11.5984 24.6848 13.5544 26.9804 13.8079 26.9804C13.9122 26.9804 14.0661 26.9058 14.1501 26.8145C14.372 26.5735 15.6826 24.5767 15.6111 24.5114C15.5645 24.4688 12.7778 22.6225 12.7778 22.6225C12.7778 22.6225 12.4699 22.8726 12.1315 23.4397Z" fill="#0A5CFF" fill-opacity="0.5"/>
</svg>
