<svg width="33" height="38" viewBox="0 0 33 38" fill="none" xmlns="http://www.w3.org/2000/svg">
<path fill-rule="evenodd" clip-rule="evenodd" d="M6.05607 0.678193C3.39843 1.25968 1.19075 3.50665 0.63539 6.19536C0.514246 6.78204 0.49893 8.41524 0.500055 20.6407C0.501439 35.4644 0.487681 34.9823 0.934789 35.8589C1.21896 36.416 1.71444 36.8992 2.27265 37.1636C2.70349 37.3678 2.90537 37.4097 3.45917 37.4097C4.5975 37.4099 4.97495 37.2378 10.1732 34.348C12.8052 32.8849 15.1221 31.6271 15.3219 31.5527C15.553 31.4667 15.984 31.4162 16.5071 31.4137C17.1897 31.4103 17.4172 31.446 17.8483 31.6235C18.1339 31.7411 20.295 32.9107 22.6508 34.2226C27.2091 36.7608 27.6736 37.0097 28.226 37.21C29.0837 37.5211 30.1956 37.4974 30.8602 37.1537C31.5783 36.7825 32.226 35.8341 32.4286 34.8571C32.489 34.5659 32.5108 29.8257 32.4951 20.3631C32.469 4.58492 32.5306 6.02731 31.8201 4.55602C31.1346 3.13673 29.9229 1.92658 28.4985 1.23874C27.0563 0.542338 27.9769 0.593997 16.6802 0.575653C8.40774 0.56224 6.5018 0.580671 6.05607 0.678193ZM10.8197 12.3237C10.4454 12.509 10.17 12.8643 10.0691 13.2923C9.98815 13.6359 10.1649 14.2073 10.4362 14.4786C10.8604 14.9028 12.9395 15.4862 14.7752 15.6962C15.8932 15.824 18.1552 15.7582 19.2328 15.5665C20.1989 15.3946 21.8095 14.9461 22.2311 14.7315C23.112 14.2833 23.1915 12.9025 22.3654 12.3986C21.8763 12.1003 21.5829 12.098 20.6307 12.3853C18.9406 12.8952 18.4411 12.965 16.5071 12.9607C14.6047 12.9564 13.799 12.8413 12.2835 12.3574C11.4692 12.0972 11.2858 12.0931 10.8197 12.3237Z" fill="#1D6BF5" fill-opacity="0.5"/>
</svg>
