<svg width="33" height="32" viewBox="0 0 33 32" fill="none" xmlns="http://www.w3.org/2000/svg">
<path fill-rule="evenodd" clip-rule="evenodd" d="M4.40969 2.95719C2.63685 3.21099 1.21039 4.45063 0.64716 6.22685L0.500812 6.68839V15.9933V25.2983L0.64716 25.7598C1.05973 27.061 1.87851 28.0274 3.05547 28.6026C4.08584 29.106 2.94197 29.0637 16.1096 29.0859C24.4062 29.0999 28.003 29.0856 28.3781 29.0375C30.3385 28.7858 31.9825 27.2965 32.3227 25.4642C32.3586 25.2709 32.4129 25.0645 32.4434 25.0055C32.5233 24.8507 32.5164 6.88673 32.4364 6.9357C32.4002 6.95789 32.374 6.8973 32.374 6.79127C32.374 6.69086 32.3146 6.41796 32.2419 6.18481C31.8522 4.9338 31.0148 3.9531 29.8505 3.38411C28.8187 2.87991 29.9837 2.92177 16.6715 2.91027C9.67966 2.90427 4.64495 2.9235 4.40969 2.95719ZM0.5 15.9933C0.5 20.9751 0.507367 23.0131 0.51642 20.5222C0.525474 18.0314 0.525474 13.9554 0.51642 11.4645C0.507367 8.9737 0.5 11.0116 0.5 15.9933ZM23.0065 11.5137C21.0169 11.8705 19.4933 13.4956 19.2615 15.5079C19.0334 17.4887 20.218 19.4545 22.0957 20.2112C22.9487 20.5549 23.1739 20.5685 28.0117 20.5685H32.4364V19.6411V18.7137H27.9154C23.6922 18.7137 23.37 18.7062 23.0234 18.5994C21.6158 18.1655 20.7995 16.7172 21.1682 15.3079C21.4051 14.4028 22.1158 13.667 23.0234 13.3873C23.37 13.2805 23.6922 13.273 27.9154 13.273H32.4364V12.3456V11.4182L27.9567 11.4237C24.4628 11.428 23.3735 11.4478 23.0065 11.5137ZM23.5141 15.1467C23.3972 15.1873 23.2184 15.3228 23.1167 15.4478C22.9656 15.6337 22.9319 15.7331 22.9319 15.9933C22.9319 16.2536 22.9656 16.353 23.1167 16.5389C23.3675 16.8474 23.6028 16.9138 24.4447 16.9138C25.2867 16.9138 25.5219 16.8474 25.7727 16.5389C25.9239 16.353 25.9576 16.2536 25.9576 15.9933C25.9576 15.7331 25.9239 15.6337 25.7727 15.4478C25.5219 15.1393 25.2867 15.0729 24.4447 15.0729C24.0488 15.0729 23.6314 15.106 23.5141 15.1467Z" fill="#1D6BF5" fill-opacity="0.5"/>
</svg>
