<svg width="54" height="18" viewBox="0 0 54 18" fill="none" xmlns="http://www.w3.org/2000/svg">
<path d="M9.37988 2.84473H51.3109C52.4155 2.84473 53.3109 3.74016 53.3109 4.84473V9.91369C53.3109 13.7797 50.1769 16.9137 46.3109 16.9137H9.37988V2.84473Z" fill="url(#paint0_linear_5796_67428)"/>
<path d="M9.37988 2.84473H51.3109C52.4155 2.84473 53.3109 3.74016 53.3109 4.84473V9.91369C53.3109 13.7797 50.1769 16.9137 46.3109 16.9137H9.37988V2.84473Z" fill="url(#paint1_linear_5796_67428)"/>
<path d="M19.9313 8.12069L15.8279 0.5L9.96582 6.36207V17.5L19.9313 8.12069Z" fill="url(#paint2_radial_5796_67428)"/>
<path d="M0.000303268 8.12069L4.10375 0.5L9.96582 6.36207V17.5L0.000303268 8.12069Z" fill="url(#paint3_linear_5796_67428)"/>
<path d="M15.8286 0.5H4.10449L9.96656 6.36207L15.8286 0.5Z" fill="url(#paint4_radial_5796_67428)"/>
<path d="M19.9313 8.12069L15.8279 0.5L9.96582 6.36207V17.5L19.9313 8.12069Z" fill="url(#paint5_radial_5796_67428)" fill-opacity="0.5"/>
<path d="M0.000303268 8.12069L4.10375 0.5L9.96582 6.36207V17.5L0.000303268 8.12069Z" fill="url(#paint6_linear_5796_67428)" fill-opacity="0.5"/>
<path d="M29.25 7.47C28.4633 7.78333 27.5967 7.96333 26.65 8.01V9.64H29.51V10.24H28.58V14.98H27.96V10.24H26.65V11.29C26.6033 12.8167 26.2667 14.0333 25.64 14.94L25.18 14.46C25.7133 13.6933 25.9933 12.6367 26.02 11.29V7.5C27.08 7.48 28.0467 7.28333 28.92 6.91L29.25 7.47ZM23.24 7.59C23.1733 7.44333 23.1067 7.31 23.04 7.19C22.9733 7.06333 22.9033 6.94 22.83 6.82L23.49 6.71C23.5567 6.84333 23.62 6.98333 23.68 7.13C23.74 7.27667 23.8 7.43 23.86 7.59H25.54V8.17H21.54V7.59H23.24ZM22.48 9.6C22.4067 9.42667 22.33 9.25667 22.25 9.09C22.17 8.92333 22.09 8.76333 22.01 8.61L22.57 8.4C22.75 8.73333 22.9067 9.13333 23.04 9.6H24.01C24.0967 9.4 24.1767 9.2 24.25 9C24.33 8.8 24.4033 8.59333 24.47 8.38L25.05 8.58C24.91 8.98 24.7567 9.32 24.59 9.6H25.59V10.19H23.88V11.17H25.44V11.76H23.88V14.26C23.88 14.7467 23.62 14.99 23.1 14.99H22.63L22.5 14.39C22.5667 14.41 22.6333 14.4233 22.7 14.43C22.7733 14.4367 22.84 14.44 22.9 14.44C23.1333 14.44 23.25 14.3333 23.25 14.12V11.76H21.59V11.17H23.25V10.19H21.46V9.6H22.48ZM22.8 12.36C22.68 12.8067 22.5367 13.2267 22.37 13.62C22.21 14.0067 22.03 14.3667 21.83 14.7L21.3 14.36C21.5067 14.04 21.6833 13.7067 21.83 13.36C21.9833 13.0067 22.1133 12.6333 22.22 12.24L22.8 12.36ZM24.76 12.17C25.02 12.7433 25.2267 13.2733 25.38 13.76L24.85 13.96C24.6833 13.4 24.4733 12.85 24.22 12.31L24.76 12.17ZM34.5372 6.82C35.6639 8.08667 36.9572 9.07667 38.4172 9.79L38.0772 10.42C36.6039 9.64667 35.3439 8.63333 34.2972 7.38C33.3572 8.54667 32.0905 9.56 30.4972 10.42L30.1672 9.8C31.7272 9.00667 33.0272 8.01333 34.0672 6.82H34.5372ZM36.4872 9.54V10.14H32.1372V9.54H36.4872ZM37.8772 11.33V11.95H33.7072C33.4939 12.3633 33.2572 12.75 32.9972 13.11C32.7439 13.47 32.4639 13.81 32.1572 14.13C32.8772 14.09 33.5772 14.04 34.2572 13.98C34.9439 13.9133 35.6205 13.8333 36.2872 13.74C36.1339 13.54 35.9739 13.34 35.8072 13.14C35.6472 12.94 35.4739 12.74 35.2872 12.54L35.7972 12.22C36.5972 13.1333 37.2139 13.9167 37.6472 14.57L37.1172 14.94C36.9639 14.6933 36.8005 14.45 36.6272 14.21C35.9339 14.3233 35.1539 14.4233 34.2872 14.51C33.4205 14.6033 32.4539 14.6767 31.3872 14.73L31.2072 14.18C31.3672 14.1333 31.4772 14.0733 31.5372 14C32.1172 13.34 32.5939 12.6567 32.9672 11.95H30.7472V11.33H37.8772ZM46.1644 13.34H45.5244V10.61H40.8144V13.45H40.1944V10.03H46.1644V13.34ZM45.6144 7.15V9.38H40.7244V7.15H45.6144ZM45.0044 7.71H41.3444V8.82H45.0044V7.71ZM43.5744 11.25C43.4477 12.55 43.171 13.43 42.7444 13.89C42.291 14.4367 41.2344 14.79 39.5744 14.95L39.3344 14.37C40.7877 14.2767 41.741 13.9933 42.1944 13.52C42.6077 13.0667 42.8544 12.2933 42.9344 11.2L43.5744 11.25ZM43.7944 13.25C44.381 13.4233 44.9377 13.61 45.4644 13.81C45.991 14.0033 46.4944 14.2133 46.9744 14.44L46.6244 14.98C46.111 14.7133 45.5944 14.4767 45.0744 14.27C44.5544 14.0633 44.0244 13.8833 43.4844 13.73L43.7944 13.25Z" fill="white"/>
<defs>
<linearGradient id="paint0_linear_5796_67428" x1="36.3454" y1="2.84473" x2="36.3454" y2="16.9137" gradientUnits="userSpaceOnUse">
<stop stop-color="#DDA672"/>
<stop offset="1" stop-color="#9D6832"/>
</linearGradient>
<linearGradient id="paint1_linear_5796_67428" x1="36.3454" y1="2.84473" x2="36.3454" y2="16.9137" gradientUnits="userSpaceOnUse">
<stop stop-color="#9D6832" stop-opacity="0"/>
<stop offset="1" stop-opacity="0.2"/>
</linearGradient>
<radialGradient id="paint2_radial_5796_67428" cx="0" cy="0" r="1" gradientUnits="userSpaceOnUse" gradientTransform="translate(15.8279 3.43103) rotate(110.556) scale(15.0257 8.80815)">
<stop stop-color="#B47B3D"/>
<stop offset="1" stop-color="#CE955E"/>
</radialGradient>
<linearGradient id="paint3_linear_5796_67428" x1="4.10375" y1="1.08621" x2="9.37961" y2="18.0862" gradientUnits="userSpaceOnUse">
<stop stop-color="#CE9A64"/>
<stop offset="1" stop-color="#F6C896"/>
</linearGradient>
<radialGradient id="paint4_radial_5796_67428" cx="0" cy="0" r="1" gradientUnits="userSpaceOnUse" gradientTransform="translate(9.96656 2.84483) rotate(90) scale(3.51724 7.03448)">
<stop stop-color="#D39E6C"/>
<stop offset="1" stop-color="#E4B282"/>
</radialGradient>
<radialGradient id="paint5_radial_5796_67428" cx="0" cy="0" r="1" gradientUnits="userSpaceOnUse" gradientTransform="translate(12.3106 2.84483) rotate(68.7495) scale(11.3215 22.6721)">
<stop offset="0.00664742" stop-opacity="0.5"/>
<stop offset="1" stop-color="#CE955E" stop-opacity="0"/>
</radialGradient>
<linearGradient id="paint6_linear_5796_67428" x1="4.10375" y1="1.08621" x2="8.79341" y2="12.8103" gradientUnits="userSpaceOnUse">
<stop stop-opacity="0.15"/>
<stop offset="1" stop-color="#F6C896" stop-opacity="0"/>
</linearGradient>
</defs>
</svg>
