<svg width="33" height="36" viewBox="0 0 33 36" fill="none" xmlns="http://www.w3.org/2000/svg">
<path fill-rule="evenodd" clip-rule="evenodd" d="M15.1725 0.235162C13.2055 0.528403 11.5088 1.36914 10.0667 2.76512C6.35251 6.3603 6.2593 12.1468 9.85546 15.8758C11.7802 17.8716 14.605 18.9256 17.317 18.6599C19.6604 18.4304 21.6384 17.4658 23.2433 15.7702C26.6695 12.1499 26.6327 6.57934 23.1587 2.99052C21.0527 0.814656 18.1053 -0.202148 15.1725 0.235162ZM9.5131 19.3928C7.58115 19.7083 5.84023 20.4035 4.37773 21.4435C3.61721 21.9844 2.41748 23.1639 1.87293 23.9062C1.09794 24.9626 0.5 26.0924 0.5 26.5004C0.5 27.0493 2.08631 29.1796 3.55572 30.6039C5.86734 32.8447 8.32533 34.2915 11.2978 35.1609C13.0635 35.6773 14.4381 35.8644 16.4651 35.8644C17.3119 35.8644 18.3002 35.8247 18.6659 35.7758C23.0893 35.1849 26.7355 33.3527 29.786 30.1881C31.0693 28.8569 32.5 26.8669 32.5 26.4133C32.5 26.0897 31.8726 24.9263 31.2317 24.0614C29.5147 21.7443 27.0991 20.1607 24.3603 19.5568C23.6071 19.3907 23.0133 19.3776 22.6739 19.5194C22.5366 19.5767 22.2092 19.7666 21.9464 19.9414C20.9225 20.6221 19.768 21.0983 18.4563 21.3808C17.8521 21.511 17.5071 21.5388 16.5 21.5388C15.4929 21.5388 15.1479 21.511 14.5437 21.3808C13.1985 21.091 12.1508 20.6513 10.974 19.8827C10.4826 19.5618 9.90018 19.3168 9.72271 19.3565C9.70349 19.3608 9.60917 19.3771 9.5131 19.3928Z" fill="#1D6BF5" fill-opacity="0.5"/>
</svg>
