<svg width="33" height="38" viewBox="0 0 33 38" fill="none" xmlns="http://www.w3.org/2000/svg">
<path fill-rule="evenodd" clip-rule="evenodd" d="M14.9723 1.02216C12.8519 1.44712 10.8918 2.50649 9.34362 4.0642C7.71854 5.69933 6.8216 7.48924 6.39736 9.9434C6.12584 11.5143 5.73035 12.2273 4.91651 12.6132C4.4934 12.8138 4.0564 12.8295 3.4659 12.6653C3.1363 12.5737 3.02239 12.5666 2.94256 12.6329C2.88645 12.6795 2.56641 13.2662 2.23135 13.9366C0.959895 16.4809 0.411686 18.958 0.511496 21.708C0.662025 25.8562 2.26096 29.5224 5.19327 32.4425C7.71146 34.9502 10.6482 36.4381 14.1608 36.9858C15.2899 37.1619 17.7002 37.1625 18.836 36.987C23.4593 36.2725 27.4006 33.7234 29.974 29.7834C32.1895 26.3914 33.0081 22.0322 32.1888 17.989C31.7952 16.0472 31.0566 14.1999 30.0077 12.5346C29.4804 11.6975 29.5644 11.7364 28.9162 12.0291C28.229 12.3394 27.7203 12.4542 27.2175 12.4125C26.5102 12.3538 26.2204 11.9542 26.0219 10.7636C25.8134 9.51292 25.4555 8.60585 24.8198 7.71762C24.2599 6.93516 23.3951 6.22353 22.6237 5.91043C22.2725 5.7679 22.2194 5.76252 22.1101 5.85815C22.0431 5.9168 21.6084 6.30315 21.1443 6.71655C20.153 7.59954 19.8771 7.75368 19.2918 7.75148C18.773 7.74957 18.3808 7.58119 17.994 7.19442C17.3209 6.52133 16.346 3.95319 15.9271 1.74959C15.8363 1.27229 15.7285 0.884528 15.6875 0.887786C15.6465 0.891116 15.3246 0.95154 14.9723 1.02216ZM21.882 1.94439V3.00695H22.9446H24.0071V1.94439V0.881836H22.9446H21.882V1.94439ZM26.1322 4.06951V5.13207H27.1948H28.2574V4.06951V3.00695H27.1948H26.1322V4.06951ZM2.6143 6.19462V7.25718H3.67686H4.73941V6.19462V5.13207H3.67686H2.6143V6.19462ZM11.5044 14.5629C10.8891 14.6485 10.1533 15.035 9.70701 15.5068C8.33461 16.9579 8.60826 19.2859 10.278 20.3651C11.1755 20.9452 12.3576 21.0199 13.33 20.5582C14.0257 20.2278 14.5198 19.7364 14.8452 19.0514C15.2868 18.1213 15.2509 16.9862 14.7527 16.1267C14.0894 14.9826 12.8336 14.378 11.5044 14.5629ZM15.7193 21.4599L9.09647 28.083L9.85782 28.8445L10.6193 29.6059L17.2594 22.9657L23.8995 16.3255L23.1577 15.5812C22.7497 15.1718 22.3993 14.8368 22.379 14.8368C22.3587 14.8368 19.3619 17.8172 15.7193 21.4599ZM11.6935 16.6584C11.4175 16.711 10.9944 17.1925 10.9397 17.5163C10.8726 17.9135 11.083 18.3744 11.4288 18.5882C11.6424 18.7202 11.7612 18.7437 12.0804 18.7173C12.4124 18.6897 12.5089 18.6468 12.7251 18.4305C12.9414 18.2143 12.9843 18.1178 13.0119 17.7859C13.0383 17.4669 13.0148 17.3477 12.8831 17.1349C12.6423 16.7451 12.1898 16.5639 11.6935 16.6584ZM20.1465 23.6492C19.2265 23.9414 18.5432 24.5317 18.1385 25.3837C17.5444 26.6348 17.8725 28.2086 18.9131 29.0994C20.1973 30.1987 22.1459 30.1102 23.2898 28.9008C24.9085 27.1893 24.1852 24.3807 21.9464 23.684C21.4464 23.5283 20.5797 23.5116 20.1465 23.6492ZM20.5715 25.7428C20.0341 25.9666 19.7968 26.7603 20.114 27.2734C20.3278 27.6193 20.7887 27.8296 21.1859 27.7625C21.5758 27.6966 21.9912 27.2812 22.0571 26.8913C22.1229 26.5014 21.9135 26.0329 21.5816 25.8279C21.3249 25.6693 20.8452 25.6289 20.5715 25.7428Z" fill="#1D6BF5" fill-opacity="0.5"/>
</svg>
