<svg width="33" height="40" viewBox="0 0 33 40" fill="none" xmlns="http://www.w3.org/2000/svg">
<path fill-rule="evenodd" clip-rule="evenodd" d="M3.67845 0.80963C2.94142 1.04029 2.2434 1.77785 2.06578 2.51352C2.00776 2.75414 1.99003 7.90965 2.00512 20.2074L2.02632 37.5617L2.21103 37.937C2.44652 38.4156 2.90777 38.8769 3.38644 39.1124L3.76175 39.2971H16.4757H29.1896L29.5649 39.1124C30.0436 38.8769 30.5048 38.4156 30.7403 37.937L30.925 37.5617L30.9448 25.1705L30.9645 12.7793L25.8517 12.7584L20.7388 12.7375L20.3173 12.5398C19.7815 12.2885 19.3768 11.8839 19.1256 11.3481L18.9279 10.9266L18.907 5.81461L18.8861 0.702637L11.4371 0.707692C5.59399 0.711616 3.92133 0.733648 3.67845 0.80963ZM21.3047 5.53166V10.3607H26.1523H31L26.1714 5.53166C23.5157 2.8757 21.3343 0.702637 21.3238 0.702637C21.3133 0.702637 21.3047 2.8757 21.3047 5.53166ZM21.3047 26.055V34.5058H23.7192H26.1337V26.055V17.6042H23.7192H21.3047V26.055ZM14.0611 28.4695V34.5058H16.4757H18.8902V28.4695V22.4332H16.4757H14.0611V28.4695ZM6.81761 30.884V34.5058H9.23213H11.6466V30.884V27.2623H9.23213H6.81761V30.884Z" fill="#1D6BF5" fill-opacity="0.5"/>
</svg>
